<svg width="393" height="327" viewBox="0 0 393 327" fill="none" xmlns="http://www.w3.org/2000/svg">
<circle cx="66" cy="9" r="8.5" fill="white" stroke="url(#paint0_linear_1_485)"/>
<path d="M65.5 17C65.5 17.2761 65.7239 17.5 66 17.5C66.2761 17.5 66.5 17.2761 66.5 17H65.5ZM65.5 9V17H66.5V9H65.5Z" fill="url(#paint1_linear_1_485)"/>
<path d="M74 9.5C74.2761 9.5 74.5 9.27614 74.5 9C74.5 8.72386 74.2761 8.5 74 8.5V9.5ZM58 9.5H74V8.5H58V9.5Z" fill="url(#paint2_linear_1_485)"/>
<circle cx="31" cy="37" r="8.5" fill="white" stroke="url(#paint3_linear_1_485)"/>
<path d="M30.5 45C30.5 45.2761 30.7239 45.5 31 45.5C31.2761 45.5 31.5 45.2761 31.5 45H30.5ZM30.5 37V45H31.5V37H30.5Z" fill="url(#paint4_linear_1_485)"/>
<path d="M39 37.5C39.2761 37.5 39.5 37.2761 39.5 37C39.5 36.7239 39.2761 36.5 39 36.5V37.5ZM23 37.5H39V36.5H23V37.5Z" fill="url(#paint5_linear_1_485)"/>
<circle cx="101" cy="37" r="8.5" fill="white" stroke="url(#paint6_linear_1_485)"/>
<path d="M100.5 45C100.5 45.2761 100.724 45.5 101 45.5C101.276 45.5 101.5 45.2761 101.5 45H100.5ZM100.5 37V45H101.5V37H100.5Z" fill="url(#paint7_linear_1_485)"/>
<path d="M109 37.5C109.276 37.5 109.5 37.2761 109.5 37C109.5 36.7239 109.276 36.5 109 36.5V37.5ZM93 37.5H109V36.5H93V37.5Z" fill="url(#paint8_linear_1_485)"/>
<circle cx="120" cy="65" r="8.5" fill="white" stroke="url(#paint9_linear_1_485)"/>
<path d="M119.5 73C119.5 73.2761 119.724 73.5 120 73.5C120.276 73.5 120.5 73.2761 120.5 73H119.5ZM119.5 65V73H120.5V65H119.5Z" fill="url(#paint10_linear_1_485)"/>
<path d="M128 65.5C128.276 65.5 128.5 65.2761 128.5 65C128.5 64.7239 128.276 64.5 128 64.5V65.5ZM112 65.5H128V64.5H112V65.5Z" fill="url(#paint11_linear_1_485)"/>
<circle cx="82" cy="65" r="8.5" fill="white" stroke="url(#paint12_linear_1_485)"/>
<path d="M81.5 73C81.5 73.2761 81.7239 73.5 82 73.5C82.2761 73.5 82.5 73.2761 82.5 73H81.5ZM81.5 65V73H82.5V65H81.5Z" fill="url(#paint13_linear_1_485)"/>
<path d="M90 65.5C90.2761 65.5 90.5 65.2761 90.5 65C90.5 64.7239 90.2761 64.5 90 64.5V65.5ZM74 65.5H90V64.5H74V65.5Z" fill="url(#paint14_linear_1_485)"/>
<circle cx="50" cy="65" r="8.5" fill="white" stroke="url(#paint15_linear_1_485)"/>
<path d="M49.5 73C49.5 73.2761 49.7239 73.5 50 73.5C50.2761 73.5 50.5 73.2761 50.5 73H49.5ZM49.5 65V73H50.5V65H49.5Z" fill="url(#paint16_linear_1_485)"/>
<path d="M58 65.5C58.2761 65.5 58.5 65.2761 58.5 65C58.5 64.7239 58.2761 64.5 58 64.5V65.5ZM42 65.5H58V64.5H42V65.5Z" fill="url(#paint17_linear_1_485)"/>
<circle cx="12" cy="65" r="8.5" fill="white" stroke="url(#paint18_linear_1_485)"/>
<path d="M11.5 73C11.5 73.2761 11.7239 73.5 12 73.5C12.2761 73.5 12.5 73.2761 12.5 73H11.5ZM11.5 65V73H12.5V65H11.5Z" fill="url(#paint19_linear_1_485)"/>
<path d="M20 65.5C20.2761 65.5 20.5 65.2761 20.5 65C20.5 64.7239 20.2761 64.5 20 64.5V65.5ZM4 65.5H20V64.5H4V65.5Z" fill="url(#paint20_linear_1_485)"/>
<path d="M100 28L98.3403 25.6381L97.1247 28.2564L100 28ZM71.8947 15.2268L97.854 27.2793L98.0645 26.8257L72.1053 14.7732L71.8947 15.2268Z" fill="#444444"/>
<path d="M32 28L34.8753 28.2564L33.6597 25.6381L32 28ZM59.8947 14.7732L33.9355 26.8257L34.146 27.2793L60.1053 15.2268L59.8947 14.7732Z" fill="#444444"/>
<path d="M12 56L14.7884 55.2529L12.7471 53.2116L12 56ZM24.8232 42.8232L13.4142 54.2322L13.7678 54.5858L25.1768 43.1768L24.8232 42.8232Z" fill="#444444"/>
<path d="M50 56L49.2529 53.2116L47.2116 55.2529L50 56ZM36.8232 43.1768L48.2322 54.5858L48.5858 54.2322L37.1768 42.8232L36.8232 43.1768Z" fill="#444444"/>
<path d="M82 56L84.7563 55.142L82.6351 53.184L82 56ZM93.8163 42.8304L83.3424 54.1771L83.7098 54.5163L94.1837 43.1696L93.8163 42.8304Z" fill="#444444"/>
<path d="M120 56L119.253 53.2116L117.212 55.2529L120 56ZM106.823 43.1768L118.232 54.5858L118.586 54.2322L107.177 42.8232L106.823 43.1768Z" fill="#444444"/>
<path d="M4.152 2.276H6.468V3.5H4.152V2.276ZM6.06 2.276H6.288L6.504 2.228L7.32 2.468C6.984 6.452 6.036 9.632 4.404 11.504C4.188 11.192 3.768 10.736 3.456 10.52C4.86 9.032 5.796 5.816 6.06 2.576V2.276ZM3.804 4.94L4.704 4.184C5.796 5.84 7.188 8.012 7.764 9.368L6.732 10.28C6.192 8.876 4.86 6.62 3.804 4.94ZM7.416 3.296H11.592V4.58H7.416V3.296ZM9.504 0.86H10.8V10.436C10.8 11.132 10.668 11.516 10.26 11.732C9.864 11.96 9.252 12.008 8.352 12.008C8.316 11.648 8.136 11.036 7.956 10.652C8.532 10.676 9.084 10.676 9.264 10.664C9.432 10.664 9.504 10.604 9.504 10.424V0.86ZM7.332 5.78L8.364 5.384C8.844 6.248 9.348 7.364 9.588 8.108L8.496 8.576C8.292 7.82 7.776 6.656 7.332 5.78ZM0.48 3.236H3.816V4.544H0.48V3.236ZM1.62 0.812H2.88V12.08H1.62V0.812ZM1.692 4.148L2.532 4.412C2.244 6.272 1.632 8.696 0.864 10.004C0.72 9.608 0.42 9.08 0.204 8.756C0.876 7.628 1.464 5.66 1.692 4.148ZM2.856 4.676C3.084 5.036 3.984 6.716 4.152 7.064L3.444 8.252C3.192 7.472 2.568 5.984 2.292 5.372L2.856 4.676Z" fill="#444444"/>
<path d="M4.152 92.276H6.468V93.5H4.152V92.276ZM6.06 92.276H6.288L6.504 92.228L7.32 92.468C6.984 96.452 6.036 99.632 4.404 101.504C4.188 101.192 3.768 100.736 3.456 100.52C4.86 99.032 5.796 95.816 6.06 92.576V92.276ZM3.804 94.94L4.704 94.184C5.796 95.84 7.188 98.012 7.764 99.368L6.732 100.28C6.192 98.876 4.86 96.62 3.804 94.94ZM7.416 93.296H11.592V94.58H7.416V93.296ZM9.504 90.86H10.8V100.436C10.8 101.132 10.668 101.516 10.26 101.732C9.864 101.96 9.252 102.008 8.352 102.008C8.316 101.648 8.136 101.036 7.956 100.652C8.532 100.676 9.084 100.676 9.264 100.664C9.432 100.664 9.504 100.604 9.504 100.424V90.86ZM7.332 95.78L8.364 95.384C8.844 96.248 9.348 97.364 9.588 98.108L8.496 98.576C8.292 97.82 7.776 96.656 7.332 95.78ZM0.48 93.236H3.816V94.544H0.48V93.236ZM1.62 90.812H2.88V102.08H1.62V90.812ZM1.692 94.148L2.532 94.412C2.244 96.272 1.632 98.696 0.864 100.004C0.72 99.608 0.42 99.08 0.204 98.756C0.876 97.628 1.464 95.66 1.692 94.148ZM2.856 94.676C3.084 95.036 3.984 96.716 4.152 97.064L3.444 98.252C3.192 97.472 2.568 95.984 2.292 95.372L2.856 94.676ZM13.02 91.724H23.028V92.888H13.02V91.724ZM13.464 100.568H22.644V101.744H13.464V100.568ZM15.528 93.404H20.424V94.412H15.528V93.404ZM15.528 94.94H20.424V95.948H15.528V94.94ZM12.384 96.476H23.604V97.652H12.384V96.476ZM15.108 98.66H20.904V99.788H15.108V98.66ZM14.676 90.812H16.128V97.124H14.676V90.812ZM19.908 90.824H21.372V97.124H19.908V90.824ZM17.232 97.904H18.708V101.252H17.232V97.904ZM15.42 96.812L16.62 97.256C15.852 98.528 14.556 99.656 13.188 100.268C12.984 99.932 12.576 99.428 12.276 99.164C13.524 98.708 14.784 97.784 15.42 96.812ZM20.628 96.812C21.264 97.736 22.5 98.6 23.736 99.044C23.424 99.308 23.004 99.824 22.788 100.16C21.492 99.584 20.244 98.444 19.488 97.244L20.628 96.812ZM24.696 93.14H35.316V94.604H24.696V93.14ZM27.168 98.588H32.736V100.052H27.168V98.588ZM29.22 90.812H30.756V102.08H29.22V90.812ZM28.788 93.668L30.108 94.088C29.076 96.704 27.372 98.996 25.272 100.316C25.032 99.956 24.552 99.404 24.228 99.116C26.196 98.036 27.936 95.876 28.788 93.668ZM31.188 93.704C32.064 95.84 33.816 97.928 35.832 98.972C35.472 99.272 34.956 99.872 34.716 100.28C32.604 98.984 30.924 96.692 29.88 94.136L31.188 93.704ZM43.164 94.712C44.148 96.476 46.032 98.42 47.736 99.488C47.364 99.788 46.848 100.376 46.572 100.784C44.868 99.5 43.092 97.304 41.976 95.18L43.164 94.712ZM41.064 94.748L42.36 95.216C41.232 97.568 39.408 99.68 37.356 100.88C37.092 100.496 36.6 99.908 36.252 99.608C38.244 98.624 40.116 96.692 41.064 94.748ZM36.732 93.764H47.232V95.18H36.732V93.764ZM41.232 90.824H42.828V102.092H41.232V90.824ZM43.26 91.796L44.328 90.92C44.976 91.412 45.912 92.132 46.368 92.612L45.252 93.608C44.832 93.116 43.932 92.336 43.26 91.796ZM52.2 91.196H59.232V92.456H52.2V91.196ZM51.78 95.672H59.616V96.968H51.78V95.672ZM52.656 97.664H58.848V102.032H57.42V98.912H54.024V102.068H52.656V97.664ZM53.364 100.436H58.044V101.672H53.364V100.436ZM54.54 91.676L55.98 91.82C55.704 93.368 55.284 95.3 54.996 96.464H53.508C53.868 95.228 54.3 93.212 54.54 91.676ZM52.608 93.368H57.48V94.58H52.608V93.368ZM57.132 93.368H57.264L57.492 93.308L58.5 93.38C58.464 94.4 58.356 95.492 58.26 96.368L56.904 96.284C57.012 95.36 57.096 94.172 57.132 93.512V93.368ZM48.924 91.868L49.848 90.992C50.496 91.52 51.384 92.3 51.78 92.816L50.808 93.812C50.424 93.272 49.572 92.444 48.924 91.868ZM48.42 94.496H50.592V95.876H48.42V94.496ZM50.016 101.924L49.752 100.628L50.076 100.184L52.368 98.648C52.428 99.032 52.596 99.608 52.716 99.896C50.616 101.36 50.22 101.66 50.016 101.924ZM50.016 101.924C49.896 101.576 49.536 100.964 49.296 100.676C49.536 100.496 49.848 100.1 49.848 99.56V94.496H51.192V100.604C51.192 100.604 50.016 101.42 50.016 101.924ZM61.7855 101.111C61.5043 101.111 61.2628 101.011 61.0611 100.812C60.8622 100.611 60.7628 100.369 60.7628 100.088C60.7628 99.8097 60.8622 99.571 61.0611 99.3722C61.2628 99.1733 61.5043 99.0739 61.7855 99.0739C62.0582 99.0739 62.2969 99.1733 62.5014 99.3722C62.706 99.571 62.8082 99.8097 62.8082 100.088C62.8082 100.276 62.7599 100.447 62.6634 100.604C62.5696 100.757 62.446 100.881 62.2926 100.974C62.1392 101.065 61.9702 101.111 61.7855 101.111ZM61.7855 96.5256C61.5043 96.5256 61.2628 96.4261 61.0611 96.2273C60.8622 96.0284 60.7628 95.7869 60.7628 95.5028C60.7628 95.2244 60.8622 94.9872 61.0611 94.7912C61.2628 94.5923 61.5043 94.4929 61.7855 94.4929C62.0582 94.4929 62.2969 94.5923 62.5014 94.7912C62.706 94.9872 62.8082 95.2244 62.8082 95.5028C62.8082 95.6932 62.7599 95.8665 62.6634 96.0227C62.5696 96.1761 62.446 96.2983 62.2926 96.3892C62.1392 96.4801 61.9702 96.5256 61.7855 96.5256ZM2.7 109.292H11.232V110.036H2.7V109.292ZM2.868 112.796H9.732V113.54H2.868V112.796ZM4.632 108.248H5.484V111.308H8.412V108.248H9.288V112.028H4.632V108.248ZM9.492 112.796H9.672L9.84 112.748L10.404 113.06C9.084 115.556 6.012 116.564 2.784 116.972C2.712 116.744 2.544 116.408 2.4 116.204C5.436 115.916 8.4 114.98 9.492 112.928V112.796ZM5.004 113.42C6.144 115.016 8.628 115.916 11.532 116.216C11.34 116.408 11.112 116.756 11.004 116.984C8.028 116.6 5.532 115.58 4.224 113.708L5.004 113.42ZM5.88 105.932H6.804V107.564H5.88V105.932ZM1.884 107.12H11.316V107.936H1.884V107.12ZM1.44 107.12H2.304V110.576C2.304 112.448 2.148 115.16 1.116 116.984C0.96 116.828 0.576 116.576 0.372 116.48C1.356 114.764 1.44 112.328 1.44 110.576V107.12ZM13.2784 111.636C13.2784 110.562 13.4176 109.575 13.696 108.675C13.9773 107.771 14.3778 106.94 14.8977 106.182H15.7841C15.5795 106.463 15.3878 106.81 15.2088 107.222C15.0327 107.631 14.8778 108.081 14.7443 108.572C14.6108 109.061 14.5057 109.567 14.429 110.089C14.3551 110.612 14.3182 111.128 14.3182 111.636C14.3182 112.312 14.3835 112.999 14.5142 113.695C14.6449 114.391 14.821 115.037 15.0426 115.634C15.2642 116.23 15.5114 116.716 15.7841 117.091H14.8977C14.3778 116.332 13.9773 115.503 13.696 114.602C13.4176 113.699 13.2784 112.71 13.2784 111.636ZM20.0977 116H17.4045V107.273H20.217C21.0636 107.273 21.788 107.447 22.3903 107.797C22.9925 108.143 23.4542 108.642 23.7752 109.293C24.0962 109.94 24.2567 110.716 24.2567 111.619C24.2567 112.528 24.0948 113.311 23.771 113.967C23.4471 114.621 22.9755 115.124 22.3562 115.476C21.7369 115.825 20.984 116 20.0977 116ZM18.4613 115.062H20.0295C20.7511 115.062 21.3491 114.923 21.8235 114.645C22.2979 114.366 22.6516 113.97 22.8846 113.456C23.1175 112.942 23.234 112.33 23.234 111.619C23.234 110.915 23.119 110.308 22.8888 109.8C22.6587 109.288 22.315 108.896 21.8576 108.624C21.4002 108.348 20.8306 108.21 20.1488 108.21H18.4613V115.062ZM28.6374 116.136C28.0067 116.136 27.4627 115.997 27.0053 115.719C26.5508 115.438 26.1999 115.045 25.9528 114.543C25.7085 114.037 25.5863 113.449 25.5863 112.778C25.5863 112.108 25.7085 111.517 25.9528 111.006C26.1999 110.491 26.5437 110.091 26.984 109.804C27.4272 109.514 27.9442 109.369 28.5352 109.369C28.8761 109.369 29.2127 109.426 29.5451 109.54C29.8775 109.653 30.18 109.838 30.4528 110.094C30.7255 110.347 30.9428 110.682 31.1048 111.099C31.2667 111.517 31.3477 112.031 31.3477 112.642V113.068H26.3022V112.199H30.3249C30.3249 111.83 30.2511 111.5 30.1033 111.21C29.9585 110.92 29.7511 110.692 29.4812 110.524C29.2141 110.357 28.8988 110.273 28.5352 110.273C28.1346 110.273 27.788 110.372 27.4954 110.571C27.2056 110.767 26.9826 111.023 26.8263 111.338C26.6701 111.653 26.592 111.991 26.592 112.352V112.932C26.592 113.426 26.6772 113.845 26.8477 114.189C27.021 114.53 27.261 114.79 27.5678 114.969C27.8746 115.145 28.2312 115.233 28.6374 115.233C28.9016 115.233 29.1403 115.196 29.3533 115.122C29.5692 115.045 29.7553 114.932 29.9116 114.781C30.0678 114.628 30.1886 114.437 30.2738 114.21L31.2454 114.483C31.1431 114.812 30.9712 115.102 30.7298 115.352C30.4883 115.599 30.19 115.793 29.8349 115.932C29.4798 116.068 29.0806 116.136 28.6374 116.136ZM35.5195 118.591C35.0337 118.591 34.6161 118.528 34.2667 118.403C33.9173 118.281 33.6261 118.119 33.3931 117.918C33.163 117.719 32.9798 117.506 32.8434 117.278L33.6445 116.716C33.7354 116.835 33.8505 116.972 33.9897 117.125C34.1289 117.281 34.3192 117.416 34.5607 117.53C34.805 117.646 35.1246 117.705 35.5195 117.705C36.0479 117.705 36.484 117.577 36.8278 117.321C37.1715 117.065 37.3434 116.665 37.3434 116.119V114.79H37.2582C37.1843 114.909 37.0792 115.057 36.9428 115.233C36.8093 115.406 36.6161 115.561 36.3633 115.697C36.1133 115.831 35.7752 115.898 35.3491 115.898C34.8207 115.898 34.3462 115.773 33.9258 115.523C33.5082 115.273 33.1772 114.909 32.9329 114.432C32.6914 113.955 32.5707 113.375 32.5707 112.693C32.5707 112.023 32.6886 111.439 32.9244 110.942C33.1602 110.442 33.4883 110.055 33.9087 109.783C34.3292 109.507 34.815 109.369 35.3661 109.369C35.7923 109.369 36.1303 109.44 36.3803 109.582C36.6332 109.722 36.8263 109.881 36.9599 110.06C37.0962 110.236 37.2013 110.381 37.2752 110.494H37.3775V109.455H38.3491V116.188C38.3491 116.75 38.2212 117.207 37.9656 117.56C37.7127 117.915 37.3718 118.175 36.9428 118.339C36.5167 118.507 36.0423 118.591 35.5195 118.591ZM35.4854 114.994C35.8888 114.994 36.2298 114.902 36.5082 114.717C36.7866 114.533 36.9982 114.267 37.1431 113.92C37.288 113.574 37.3604 113.159 37.3604 112.676C37.3604 112.205 37.2894 111.788 37.1474 111.428C37.0053 111.067 36.7951 110.784 36.5167 110.58C36.2383 110.375 35.8945 110.273 35.4854 110.273C35.0593 110.273 34.7042 110.381 34.4201 110.597C34.1388 110.812 33.9272 111.102 33.7852 111.466C33.646 111.83 33.5763 112.233 33.5763 112.676C33.5763 113.131 33.6474 113.533 33.7894 113.882C33.9343 114.229 34.1474 114.501 34.4286 114.7C34.7127 114.896 35.065 114.994 35.4854 114.994ZM40.19 116V109.455H41.1616V110.443H41.2298C41.3491 110.119 41.565 109.857 41.8775 109.655C42.19 109.453 42.5423 109.352 42.9343 109.352C43.0082 109.352 43.1005 109.354 43.2113 109.357C43.3221 109.359 43.4059 109.364 43.4627 109.369V110.392C43.4286 110.384 43.3505 110.371 43.2283 110.354C43.109 110.334 42.9826 110.324 42.8491 110.324C42.5309 110.324 42.2468 110.391 41.9968 110.524C41.7496 110.655 41.5536 110.837 41.4087 111.07C41.2667 111.3 41.1957 111.562 41.1957 111.858V116H40.19ZM47.1999 116.136C46.5692 116.136 46.0252 115.997 45.5678 115.719C45.1133 115.438 44.7624 115.045 44.5153 114.543C44.271 114.037 44.1488 113.449 44.1488 112.778C44.1488 112.108 44.271 111.517 44.5153 111.006C44.7624 110.491 45.1062 110.091 45.5465 109.804C45.9897 109.514 46.5067 109.369 47.0977 109.369C47.4386 109.369 47.7752 109.426 48.1076 109.54C48.44 109.653 48.7425 109.838 49.0153 110.094C49.288 110.347 49.5053 110.682 49.6673 111.099C49.8292 111.517 49.9102 112.031 49.9102 112.642V113.068H44.8647V112.199H48.8874C48.8874 111.83 48.8136 111.5 48.6658 111.21C48.521 110.92 48.3136 110.692 48.0437 110.524C47.7766 110.357 47.4613 110.273 47.0977 110.273C46.6971 110.273 46.3505 110.372 46.0579 110.571C45.7681 110.767 45.5451 111.023 45.3888 111.338C45.2326 111.653 45.1545 111.991 45.1545 112.352V112.932C45.1545 113.426 45.2397 113.845 45.4102 114.189C45.5835 114.53 45.8235 114.79 46.1303 114.969C46.4371 115.145 46.7937 115.233 47.1999 115.233C47.4641 115.233 47.7028 115.196 47.9158 115.122C48.1317 115.045 48.3178 114.932 48.4741 114.781C48.6303 114.628 48.7511 114.437 48.8363 114.21L49.8079 114.483C49.7056 114.812 49.5337 115.102 49.2923 115.352C49.0508 115.599 48.7525 115.793 48.3974 115.932C48.0423 116.068 47.6431 116.136 47.1999 116.136ZM54.1843 116.136C53.5536 116.136 53.0096 115.997 52.5522 115.719C52.0977 115.438 51.7468 115.045 51.4996 114.543C51.2553 114.037 51.1332 113.449 51.1332 112.778C51.1332 112.108 51.2553 111.517 51.4996 111.006C51.7468 110.491 52.0906 110.091 52.5309 109.804C52.9741 109.514 53.4911 109.369 54.082 109.369C54.4229 109.369 54.7596 109.426 55.092 109.54C55.4244 109.653 55.7269 109.838 55.9996 110.094C56.2724 110.347 56.4897 110.682 56.6516 111.099C56.8136 111.517 56.8945 112.031 56.8945 112.642V113.068H51.8491V112.199H55.8718C55.8718 111.83 55.7979 111.5 55.6502 111.21C55.5053 110.92 55.2979 110.692 55.0281 110.524C54.761 110.357 54.4457 110.273 54.082 110.273C53.6815 110.273 53.3349 110.372 53.0423 110.571C52.7525 110.767 52.5295 111.023 52.3732 111.338C52.217 111.653 52.1388 111.991 52.1388 112.352V112.932C52.1388 113.426 52.2241 113.845 52.3945 114.189C52.5678 114.53 52.8079 114.79 53.1147 114.969C53.4215 115.145 53.7781 115.233 54.1843 115.233C54.4485 115.233 54.6871 115.196 54.9002 115.122C55.1161 115.045 55.3022 114.932 55.4585 114.781C55.6147 114.628 55.7354 114.437 55.8207 114.21L56.7923 114.483C56.69 114.812 56.5181 115.102 56.2766 115.352C56.0352 115.599 55.7369 115.793 55.3817 115.932C55.0266 116.068 54.6275 116.136 54.1843 116.136ZM60.5721 112.318C60.5721 113.392 60.4315 114.381 60.1502 115.284C59.8718 116.185 59.4727 117.014 58.9528 117.773H58.0664C58.271 117.491 58.4613 117.145 58.6374 116.733C58.8164 116.324 58.9727 115.875 59.1062 115.386C59.2397 114.895 59.3434 114.388 59.4173 113.865C59.494 113.339 59.5323 112.824 59.5323 112.318C59.5323 111.642 59.467 110.956 59.3363 110.26C59.2056 109.564 59.0295 108.918 58.8079 108.321C58.5863 107.724 58.3391 107.239 58.0664 106.864H58.9528C59.4727 107.622 59.8718 108.453 60.1502 109.357C60.4315 110.257 60.5721 111.244 60.5721 112.318ZM63.505 116.068C63.2947 116.068 63.1143 115.993 62.9638 115.842C62.8132 115.692 62.7379 115.511 62.7379 115.301C62.7379 115.091 62.8132 114.911 62.9638 114.76C63.1143 114.609 63.2947 114.534 63.505 114.534C63.7152 114.534 63.8956 114.609 64.0462 114.76C64.1967 114.911 64.272 115.091 64.272 115.301C64.272 115.44 64.2365 115.568 64.1655 115.685C64.0973 115.801 64.005 115.895 63.8885 115.966C63.7749 116.034 63.647 116.068 63.505 116.068ZM63.505 111.21C63.2947 111.21 63.1143 111.135 62.9638 110.984C62.8132 110.834 62.7379 110.653 62.7379 110.443C62.7379 110.233 62.8132 110.053 62.9638 109.902C63.1143 109.751 63.2947 109.676 63.505 109.676C63.7152 109.676 63.8956 109.751 64.0462 109.902C64.1967 110.053 64.272 110.233 64.272 110.443C64.272 110.582 64.2365 110.71 64.1655 110.827C64.0973 110.943 64.005 111.037 63.8885 111.108C63.7749 111.176 63.647 111.21 63.505 111.21ZM69.0953 111.284H79.9913V112.184H69.0953V111.284ZM74.0873 109.352H75.0233V115.808C75.0233 116.408 74.8553 116.684 74.3993 116.828C73.9553 116.972 73.1753 116.996 72.0233 116.996C71.9513 116.732 71.7833 116.324 71.6273 116.06C72.5993 116.096 73.4873 116.096 73.7513 116.084C74.0033 116.072 74.0873 116.012 74.0873 115.796V109.352ZM70.3313 106.76H78.1673V107.648H70.3313V106.76ZM77.8553 106.76H78.0953L78.2993 106.712L78.9833 107.216C77.8913 108.32 76.1873 109.508 74.7833 110.228C74.6513 110.024 74.3753 109.736 74.1953 109.58C75.5033 108.956 77.0993 107.816 77.8553 106.964V106.76ZM84.8153 107.396H87.1913V108.188H84.8153V107.396ZM86.9273 107.396H87.0713L87.2153 107.36L87.7313 107.504C87.3953 111.572 86.3753 114.716 84.8753 116.384C84.7433 116.192 84.4673 115.904 84.2633 115.76C85.6193 114.344 86.6393 111.176 86.9273 107.6V107.396ZM84.6113 109.724L85.1993 109.28C86.2433 110.888 87.5033 113.012 88.0553 114.26L87.3953 114.812C86.8553 113.528 85.6313 111.344 84.6113 109.724ZM87.8993 108.572H92.0273V109.388H87.8993V108.572ZM90.2513 105.968H91.0793V115.796C91.0793 116.324 90.9473 116.588 90.6113 116.72C90.2993 116.876 89.7473 116.9 88.8113 116.9C88.7873 116.672 88.6673 116.288 88.5353 116.036C89.2193 116.06 89.8193 116.06 89.9993 116.048C90.1793 116.048 90.2513 115.988 90.2513 115.796V105.968ZM88.1393 110.816L88.7993 110.54C89.3033 111.332 89.8313 112.376 90.0713 113.072L89.3753 113.396C89.1473 112.688 88.6193 111.608 88.1393 110.816ZM81.1553 108.476H84.3713V109.304H81.1553V108.476ZM82.4873 105.92H83.2913V116.948H82.4873V105.92ZM82.4993 108.992L83.0753 109.16C82.7873 111.032 82.1273 113.456 81.3713 114.704C81.2633 114.464 81.0593 114.14 80.9033 113.948C81.5993 112.82 82.2473 110.696 82.4993 108.992ZM83.2553 109.7C83.4953 110.072 84.4673 111.788 84.6593 112.172L84.1673 112.892C83.9033 112.232 83.1353 110.648 82.8473 110.12L83.2553 109.7ZM98.4833 106.892C97.4873 108.404 95.4593 110.312 93.3232 111.56C93.1913 111.356 92.9393 111.032 92.7353 110.84C94.9193 109.604 97.0073 107.576 97.9553 105.956H98.8913C100.199 107.816 102.395 109.676 104.363 110.684C104.135 110.912 103.919 111.224 103.751 111.488C101.795 110.36 99.5872 108.464 98.4833 106.892ZM98.0033 109.892H98.9513V116.972H98.0033V109.892ZM104.999 112.328H110.891V113.084H104.999V112.328ZM105.071 108.14H110.855V108.872H105.071V108.14ZM107.231 111.296L108.071 111.476C107.531 112.652 106.775 114.116 106.223 115.064L105.431 114.788C105.971 113.876 106.727 112.4 107.231 111.296ZM109.031 112.772L109.871 112.88C109.463 115.22 108.203 116.372 105.431 116.96C105.371 116.72 105.191 116.396 105.023 116.216C107.531 115.796 108.659 114.812 109.031 112.772ZM109.787 106.16L110.555 106.496C110.207 107.048 109.811 107.648 109.475 108.056L108.875 107.756C109.175 107.324 109.571 106.628 109.787 106.16ZM107.555 105.92H108.383V111.44H107.555V105.92ZM105.515 106.496L106.199 106.208C106.535 106.688 106.859 107.324 106.979 107.756L106.271 108.08C106.163 107.648 105.851 106.988 105.515 106.496ZM107.567 108.464L108.179 108.824C107.591 109.832 106.463 110.9 105.431 111.464C105.323 111.26 105.107 110.96 104.939 110.78C105.935 110.348 107.039 109.388 107.567 108.464ZM108.287 108.884C108.719 109.112 110.183 110.036 110.531 110.288L110.039 110.948C109.607 110.54 108.359 109.604 107.855 109.268L108.287 108.884ZM111.767 108.14H116.039V108.98H111.767V108.14ZM112.067 105.92L112.979 106.052C112.583 108.404 111.875 110.552 110.819 111.956C110.675 111.788 110.303 111.488 110.087 111.344C111.107 110.072 111.731 108.044 112.067 105.92ZM114.431 108.62L115.343 108.716C114.767 112.856 113.495 115.436 110.471 116.996C110.375 116.78 110.111 116.384 109.931 116.192C112.787 114.848 113.939 112.424 114.431 108.62ZM112.247 108.884C112.775 112.184 113.927 115.016 116.159 116.192C115.943 116.372 115.655 116.72 115.523 116.96C113.171 115.58 112.031 112.652 111.431 109.016L112.247 108.884ZM106.151 114.62L106.631 114.008C108.071 114.56 109.559 115.352 110.423 116.012L109.799 116.66C108.971 115.988 107.543 115.184 106.151 114.62ZM4.404 125.036H11.544V125.924H4.404V125.036ZM7.416 121.148H8.352V131.96H7.416V121.148ZM1.368 122.204H4.476V128.936H1.368V128.096H3.612V123.044H1.368V122.204ZM0.9 122.204H1.74V129.896H0.9V122.204ZM21.252 125.168H22.188V129.176C22.188 129.728 22.068 130.028 21.624 130.172C21.192 130.328 20.448 130.328 19.308 130.328C19.272 130.04 19.14 129.656 19.02 129.38C19.908 129.416 20.724 129.416 20.952 129.392C21.192 129.392 21.252 129.332 21.252 129.164V125.168ZM16.32 125.708H17.256V131.936H16.32V125.708ZM13.164 125.168H21.648V126.032H13.164V125.168ZM12.66 122.288H23.34V123.152H12.66V122.288ZM15.468 120.92H16.38V124.52H15.468V120.92ZM19.608 120.92H20.544V124.52H19.608V120.92ZM29.448 120.92H30.36V125.012H29.448V120.92ZM26.832 125.432V127.58H33.108V125.432H26.832ZM25.98 124.58H34.02V128.42H25.98V124.58ZM29.868 122.204H34.92V123.056H29.868V122.204ZM28.068 129.464L28.932 129.392C29.1 130.172 29.232 131.156 29.244 131.744L28.32 131.864C28.32 131.252 28.224 130.244 28.068 129.464ZM30.552 129.476L31.368 129.308C31.74 130.028 32.136 131 32.28 131.612L31.392 131.828C31.272 131.228 30.912 130.232 30.552 129.476ZM33 129.38L33.804 129.08C34.416 129.824 35.112 130.844 35.4 131.516L34.548 131.864C34.272 131.204 33.612 130.148 33 129.38ZM26.124 129.152L26.976 129.368C26.58 130.304 25.968 131.324 25.32 131.96L24.492 131.552C25.128 131.012 25.752 130.04 26.124 129.152ZM37.2784 126.636C37.2784 125.562 37.4176 124.575 37.696 123.675C37.9773 122.771 38.3778 121.94 38.8977 121.182H39.7841C39.5795 121.463 39.3878 121.81 39.2088 122.222C39.0327 122.631 38.8778 123.081 38.7443 123.572C38.6108 124.061 38.5057 124.567 38.429 125.089C38.3551 125.612 38.3182 126.128 38.3182 126.636C38.3182 127.312 38.3835 127.999 38.5142 128.695C38.6449 129.391 38.821 130.037 39.0426 130.634C39.2642 131.23 39.5114 131.716 39.7841 132.091H38.8977C38.3778 131.332 37.9773 130.503 37.696 129.602C37.4176 128.699 37.2784 127.71 37.2784 126.636ZM41.4045 131V122.273H42.4613V130.062H46.5181V131H41.4045ZM50.7624 131.136C50.1317 131.136 49.5877 130.997 49.1303 130.719C48.6758 130.438 48.3249 130.045 48.0778 129.543C47.8335 129.037 47.7113 128.449 47.7113 127.778C47.7113 127.108 47.8335 126.517 48.0778 126.006C48.3249 125.491 48.6687 125.091 49.109 124.804C49.5522 124.514 50.0692 124.369 50.6602 124.369C51.0011 124.369 51.3377 124.426 51.6701 124.54C52.0025 124.653 52.305 124.838 52.5778 125.094C52.8505 125.347 53.0678 125.682 53.2298 126.099C53.3917 126.517 53.4727 127.031 53.4727 127.642V128.068H48.4272V127.199H52.4499C52.4499 126.83 52.3761 126.5 52.2283 126.21C52.0835 125.92 51.8761 125.692 51.6062 125.524C51.3391 125.357 51.0238 125.273 50.6602 125.273C50.2596 125.273 49.913 125.372 49.6204 125.571C49.3306 125.767 49.1076 126.023 48.9513 126.338C48.7951 126.653 48.717 126.991 48.717 127.352V127.932C48.717 128.426 48.8022 128.845 48.9727 129.189C49.146 129.53 49.386 129.79 49.6928 129.969C49.9996 130.145 50.3562 130.233 50.7624 130.233C51.0266 130.233 51.2653 130.196 51.4783 130.122C51.6942 130.045 51.8803 129.932 52.0366 129.781C52.1928 129.628 52.3136 129.437 52.3988 129.21L53.3704 129.483C53.2681 129.812 53.0962 130.102 52.8548 130.352C52.6133 130.599 52.315 130.793 51.9599 130.932C51.6048 131.068 51.2056 131.136 50.7624 131.136ZM56.9286 131.153C56.5138 131.153 56.1374 131.075 55.7994 130.919C55.4613 130.76 55.1928 130.531 54.994 130.233C54.7951 129.932 54.6957 129.568 54.6957 129.142C54.6957 128.767 54.7695 128.463 54.9173 128.23C55.065 127.994 55.2624 127.81 55.5096 127.676C55.7567 127.543 56.0295 127.443 56.3278 127.378C56.6289 127.31 56.9315 127.256 57.2354 127.216C57.6332 127.165 57.9556 127.126 58.2028 127.101C58.4528 127.072 58.6346 127.026 58.7482 126.96C58.8647 126.895 58.9229 126.781 58.9229 126.619V126.585C58.9229 126.165 58.8079 125.838 58.5778 125.605C58.3505 125.372 58.0053 125.256 57.5423 125.256C57.0621 125.256 56.6857 125.361 56.413 125.571C56.1403 125.781 55.9485 126.006 55.8377 126.244L54.8832 125.903C55.0536 125.506 55.2809 125.196 55.565 124.974C55.8519 124.75 56.1644 124.594 56.5025 124.506C56.8434 124.415 57.1786 124.369 57.5082 124.369C57.7184 124.369 57.9599 124.395 58.2326 124.446C58.5082 124.494 58.7738 124.595 59.0295 124.749C59.288 124.902 59.5025 125.134 59.6729 125.443C59.8434 125.753 59.9286 126.168 59.9286 126.688V131H58.9229V130.114H58.8718C58.8036 130.256 58.69 130.408 58.5309 130.57C58.3718 130.732 58.1602 130.869 57.896 130.983C57.6317 131.097 57.3093 131.153 56.9286 131.153ZM57.082 130.25C57.4798 130.25 57.815 130.172 58.0877 130.016C58.3633 129.859 58.5707 129.658 58.7099 129.411C58.8519 129.163 58.9229 128.903 58.9229 128.631V127.71C58.8803 127.761 58.7866 127.808 58.6417 127.851C58.4996 127.891 58.3349 127.926 58.1474 127.957C57.9627 127.986 57.7823 128.011 57.6062 128.034C57.4329 128.054 57.2923 128.071 57.1843 128.085C56.9229 128.119 56.6786 128.175 56.4513 128.251C56.2269 128.325 56.0451 128.437 55.9059 128.588C55.7695 128.736 55.7013 128.937 55.7013 129.193C55.7013 129.543 55.8306 129.807 56.0891 129.986C56.3505 130.162 56.6815 130.25 57.082 130.25ZM64.679 124.455V125.307H61.1506V124.455H64.679ZM62.2074 131V123.551C62.2074 123.176 62.2955 122.864 62.4716 122.614C62.6477 122.364 62.8764 122.176 63.1577 122.051C63.4389 121.926 63.7358 121.864 64.0483 121.864C64.2955 121.864 64.4972 121.884 64.6534 121.923C64.8097 121.963 64.9261 122 65.0028 122.034L64.7131 122.903C64.6619 122.886 64.5909 122.865 64.5 122.839C64.4119 122.814 64.2955 122.801 64.1506 122.801C63.8182 122.801 63.5781 122.885 63.4304 123.053C63.2855 123.22 63.2131 123.466 63.2131 123.79V131H62.2074ZM68.2362 127.318C68.2362 128.392 68.0955 129.381 67.8143 130.284C67.5359 131.185 67.1367 132.014 66.6168 132.773H65.7305C65.935 132.491 66.1254 132.145 66.3015 131.733C66.4805 131.324 66.6367 130.875 66.7702 130.386C66.9038 129.895 67.0075 129.388 67.0813 128.865C67.158 128.339 67.1964 127.824 67.1964 127.318C67.1964 126.642 67.131 125.956 67.0004 125.26C66.8697 124.564 66.6935 123.918 66.4719 123.321C66.2504 122.724 66.0032 122.239 65.7305 121.864H66.6168C67.1367 122.622 67.5359 123.453 67.8143 124.357C68.0955 125.257 68.2362 126.244 68.2362 127.318ZM71.169 131.068C70.9588 131.068 70.7784 130.993 70.6278 130.842C70.4773 130.692 70.402 130.511 70.402 130.301C70.402 130.091 70.4773 129.911 70.6278 129.76C70.7784 129.609 70.9588 129.534 71.169 129.534C71.3793 129.534 71.5597 129.609 71.7102 129.76C71.8608 129.911 71.9361 130.091 71.9361 130.301C71.9361 130.44 71.9006 130.568 71.8295 130.685C71.7614 130.801 71.669 130.895 71.5526 130.966C71.4389 131.034 71.3111 131.068 71.169 131.068ZM71.169 126.21C70.9588 126.21 70.7784 126.135 70.6278 125.984C70.4773 125.834 70.402 125.653 70.402 125.443C70.402 125.233 70.4773 125.053 70.6278 124.902C70.7784 124.751 70.9588 124.676 71.169 124.676C71.3793 124.676 71.5597 124.751 71.7102 124.902C71.8608 125.053 71.9361 125.233 71.9361 125.443C71.9361 125.582 71.9006 125.71 71.8295 125.827C71.7614 125.943 71.669 126.037 71.5526 126.108C71.4389 126.176 71.3111 126.21 71.169 126.21ZM78.8953 124.292H87.4273V125.036H78.8953V124.292ZM79.0633 127.796H85.9273V128.54H79.0633V127.796ZM80.8273 123.248H81.6793V126.308H84.6073V123.248H85.4833V127.028H80.8273V123.248ZM85.6873 127.796H85.8673L86.0353 127.748L86.5993 128.06C85.2793 130.556 82.2073 131.564 78.9793 131.972C78.9073 131.744 78.7393 131.408 78.5953 131.204C81.6313 130.916 84.5953 129.98 85.6873 127.928V127.796ZM81.1993 128.42C82.3393 130.016 84.8233 130.916 87.7273 131.216C87.5353 131.408 87.3073 131.756 87.1993 131.984C84.2233 131.6 81.7273 130.58 80.4193 128.708L81.1993 128.42ZM82.0753 120.932H82.9993V122.564H82.0753V120.932ZM78.0793 122.12H87.5113V122.936H78.0793V122.12ZM77.6353 122.12H78.4993V125.576C78.4993 127.448 78.3433 130.16 77.3113 131.984C77.1553 131.828 76.7713 131.576 76.5673 131.48C77.5513 129.764 77.6353 127.328 77.6353 125.576V122.12ZM89.1673 123.812H98.4313V124.712H89.1673V123.812ZM98.0593 123.812H98.9953C98.9953 123.812 98.9953 124.148 98.9833 124.28C98.8033 129.092 98.6353 130.796 98.1553 131.348C97.8913 131.684 97.6033 131.792 97.1713 131.828C96.7513 131.864 95.9833 131.852 95.2513 131.804C95.2273 131.54 95.1073 131.144 94.9393 130.868C95.7433 130.952 96.4993 130.952 96.7993 130.952C97.0513 130.952 97.1833 130.916 97.3273 130.772C97.7113 130.388 97.9033 128.612 98.0593 124.004V123.812ZM93.1153 120.944H94.0273V122.372C94.0273 125.06 93.7393 129.02 89.5513 131.804C89.4073 131.588 89.0713 131.288 88.8433 131.132C92.8633 128.528 93.1153 124.856 93.1153 122.372V120.944ZM90.1273 121.592L90.9073 121.256C91.3873 121.784 91.9513 122.54 92.2033 123.032L91.3873 123.416C91.1593 122.936 90.6073 122.156 90.1273 121.592ZM94.1713 126.56L94.9153 126.188C95.5513 126.896 96.2833 127.868 96.5953 128.504L95.8033 128.924C95.5033 128.288 94.7833 127.28 94.1713 126.56ZM103.945 131.119C103.303 131.119 102.756 130.945 102.305 130.595C101.853 130.243 101.508 129.733 101.269 129.065C101.031 128.395 100.911 127.585 100.911 126.636C100.911 125.693 101.031 124.888 101.269 124.22C101.511 123.55 101.857 123.038 102.309 122.686C102.763 122.331 103.309 122.153 103.945 122.153C104.582 122.153 105.126 122.331 105.577 122.686C106.032 123.038 106.379 123.55 106.617 124.22C106.859 124.888 106.979 125.693 106.979 126.636C106.979 127.585 106.86 128.395 106.621 129.065C106.383 129.733 106.038 130.243 105.586 130.595C105.134 130.945 104.587 131.119 103.945 131.119ZM103.945 130.182C104.582 130.182 105.076 129.875 105.428 129.261C105.781 128.648 105.957 127.773 105.957 126.636C105.957 125.881 105.876 125.237 105.714 124.706C105.555 124.175 105.325 123.77 105.023 123.491C104.725 123.213 104.366 123.074 103.945 123.074C103.315 123.074 102.822 123.385 102.467 124.007C102.112 124.626 101.934 125.503 101.934 126.636C101.934 127.392 102.013 128.034 102.173 128.562C102.332 129.091 102.56 129.493 102.859 129.768C103.16 130.044 103.522 130.182 103.945 130.182ZM109.267 122.852H112.915V130.7H109.267V129.884H112.075V123.656H109.267V122.852ZM108.727 122.852H109.567V131.66H108.727V122.852ZM109.207 126.188H112.519V126.992H109.207V126.188ZM110.563 120.896L111.535 121.076C111.295 121.82 110.995 122.648 110.755 123.188L110.035 123.008C110.239 122.432 110.467 121.52 110.563 120.896ZM114.619 122.816H118.303V123.656H114.619V122.816ZM117.991 122.816H118.831C118.831 122.816 118.831 123.152 118.831 123.284C118.639 128.792 118.471 130.652 117.991 131.24C117.727 131.588 117.451 131.696 117.031 131.732C116.623 131.78 115.915 131.756 115.243 131.72C115.219 131.456 115.111 131.084 114.943 130.844C115.723 130.904 116.443 130.916 116.719 130.916C116.959 130.916 117.103 130.88 117.235 130.724C117.631 130.292 117.823 128.3 117.991 123.008V122.816ZM114.871 120.872L115.735 121.076C115.291 122.864 114.583 124.628 113.755 125.768C113.599 125.624 113.227 125.372 113.011 125.252C113.827 124.196 114.487 122.54 114.871 120.872ZM114.319 125.936L115.015 125.528C115.699 126.38 116.527 127.544 116.911 128.252L116.143 128.732C115.783 128 114.979 126.812 114.319 125.936ZM128.947 125.168H129.883V129.176C129.883 129.728 129.763 130.028 129.319 130.172C128.887 130.328 128.143 130.328 127.003 130.328C126.967 130.04 126.835 129.656 126.715 129.38C127.603 129.416 128.419 129.416 128.647 129.392C128.887 129.392 128.947 129.332 128.947 129.164V125.168ZM124.015 125.708H124.951V131.936H124.015V125.708ZM120.859 125.168H129.343V126.032H120.859V125.168ZM120.355 122.288H131.035V123.152H120.355V122.288ZM123.163 120.92H124.075V124.52H123.163V120.92ZM127.303 120.92H128.239V124.52H127.303V120.92ZM137.143 120.92H138.055V125.012H137.143V120.92ZM134.527 125.432V127.58H140.803V125.432H134.527ZM133.675 124.58H141.715V128.42H133.675V124.58ZM137.563 122.204H142.615V123.056H137.563V122.204ZM135.763 129.464L136.627 129.392C136.795 130.172 136.927 131.156 136.939 131.744L136.015 131.864C136.015 131.252 135.919 130.244 135.763 129.464ZM138.247 129.476L139.063 129.308C139.435 130.028 139.831 131 139.975 131.612L139.087 131.828C138.967 131.228 138.607 130.232 138.247 129.476ZM140.695 129.38L141.499 129.08C142.111 129.824 142.807 130.844 143.095 131.516L142.243 131.864C141.967 131.204 141.307 130.148 140.695 129.38ZM133.819 129.152L134.671 129.368C134.275 130.304 133.663 131.324 133.015 131.96L132.187 131.552C132.823 131.012 133.447 130.04 133.819 129.152ZM6.36 145.712H10.32V146.504H6.36V145.712ZM6.948 137.156H10.116V137.936H6.948V137.156ZM6.012 142.616H10.728V146.9H9.864V143.396H6.84V146.936H6.012V142.616ZM9.792 137.156H9.948L10.116 137.12L10.692 137.36C9.768 140.312 7.572 142.28 5.292 143.252C5.184 143.048 4.944 142.736 4.764 142.568C6.888 141.752 9.012 139.82 9.792 137.312V137.156ZM7.152 135.92L8.016 136.124C7.476 137.756 6.588 139.28 5.592 140.276C5.448 140.12 5.1 139.832 4.884 139.7C5.868 138.8 6.696 137.396 7.152 135.92ZM6.912 137.648C7.608 139.364 9.216 141.428 11.676 142.364C11.484 142.532 11.232 142.88 11.112 143.108C8.64 142.04 7.056 139.868 6.324 138.14L6.912 137.648ZM1.068 141.248H1.824V145.604H1.068V141.248ZM1.872 137.216V139.328H4.128V137.216H1.872ZM1.068 136.424H4.968V140.12H1.068V136.424ZM2.76 139.724H3.576V145.208H2.76V139.724ZM0.444 145.508C1.632 145.268 3.432 144.848 5.16 144.44L5.244 145.244C3.6 145.652 1.872 146.072 0.612 146.384L0.444 145.508ZM3.048 141.86H5.076V142.664H3.048V141.86ZM16.5 136.568H22.236V137.336H16.5V136.568ZM22.008 136.568H22.176L22.332 136.532L22.908 136.784C21.744 139.604 19.092 141.2 16.284 142.004C16.2 141.788 15.996 141.452 15.828 141.284C18.456 140.624 21.012 139.088 22.008 136.712V136.568ZM18.024 137.288C19.02 139.232 21.12 140.636 23.724 141.176C23.532 141.356 23.28 141.704 23.16 141.944C20.508 141.284 18.384 139.76 17.256 137.564L18.024 137.288ZM15.888 145.796H23.508V146.6H15.888V145.796ZM19.344 141.5H20.22V146.168H19.344V141.5ZM16.656 143.108H22.848V143.9H16.656V143.108ZM15.492 138.296L16.296 138.62C15.42 140.096 14.052 141.584 12.792 142.544C12.696 142.352 12.42 141.908 12.264 141.728C13.464 140.888 14.724 139.604 15.492 138.296ZM15.084 135.932L15.948 136.28C15.204 137.336 14.016 138.5 12.9 139.232C12.804 139.028 12.576 138.668 12.432 138.488C13.428 137.852 14.544 136.808 15.084 135.932ZM14.232 140.72L15.072 139.868L15.108 139.892V146.96H14.232V140.72ZM25.6534 146.068C25.4432 146.068 25.2628 145.993 25.1122 145.842C24.9616 145.692 24.8864 145.511 24.8864 145.301C24.8864 145.091 24.9616 144.911 25.1122 144.76C25.2628 144.609 25.4432 144.534 25.6534 144.534C25.8636 144.534 26.044 144.609 26.1946 144.76C26.3452 144.911 26.4205 145.091 26.4205 145.301C26.4205 145.44 26.3849 145.568 26.3139 145.685C26.2457 145.801 26.1534 145.895 26.0369 145.966C25.9233 146.034 25.7955 146.068 25.6534 146.068ZM25.6534 141.21C25.4432 141.21 25.2628 141.135 25.1122 140.984C24.9616 140.834 24.8864 140.653 24.8864 140.443C24.8864 140.233 24.9616 140.053 25.1122 139.902C25.2628 139.751 25.4432 139.676 25.6534 139.676C25.8636 139.676 26.044 139.751 26.1946 139.902C26.3452 140.053 26.4205 140.233 26.4205 140.443C26.4205 140.582 26.3849 140.71 26.3139 140.827C26.2457 140.943 26.1534 141.037 26.0369 141.108C25.9233 141.176 25.7955 141.21 25.6534 141.21ZM35.0477 137.816L35.8517 137.42C36.6557 138.296 37.4237 139.484 37.7717 140.3L36.9077 140.768C36.5957 139.94 35.8157 138.704 35.0477 137.816ZM31.0997 144.728C32.3237 144.248 34.2437 143.432 36.0437 142.64L36.2477 143.516C34.5797 144.284 32.7557 145.088 31.4237 145.664L31.0997 144.728ZM38.2997 143.144L38.9957 142.556C40.1357 143.684 41.6237 145.244 42.3317 146.228L41.5637 146.936C40.8917 145.94 39.4517 144.32 38.2997 143.144ZM39.9677 136.544L40.9397 136.64C40.3277 142.184 38.9237 145.244 34.7237 146.996C34.5917 146.804 34.2317 146.408 34.0037 146.216C38.1557 144.704 39.4277 141.764 39.9677 136.544ZM32.5637 136.58L33.4877 136.544L33.6917 144.476L32.7677 144.512L32.5637 136.58ZM43.3517 142.592H54.0077V143.408H43.3517V142.592ZM43.3757 137.156H53.9957V137.948H43.3757V137.156ZM45.9917 138.956H51.2597V139.688H45.9917V138.956ZM48.1877 141.308H49.0997V146.96H48.1877V141.308ZM47.7917 142.952L48.4997 143.276C47.4077 144.728 45.4517 146.048 43.7237 146.72C43.5797 146.492 43.3157 146.156 43.1237 145.976C44.8397 145.424 46.7837 144.224 47.7917 142.952ZM49.5077 142.952C50.5277 144.224 52.4957 145.388 54.2597 145.928C54.0437 146.108 53.7797 146.444 53.6477 146.684C51.8837 146.036 49.9157 144.728 48.7997 143.276L49.5077 142.952ZM45.5717 135.92H46.4477V140.78H50.8277V135.92H51.7397V141.548H45.5717V135.92ZM60.6317 136.892C59.6357 138.404 57.6077 140.312 55.4717 141.56C55.3397 141.356 55.0877 141.032 54.8837 140.84C57.0677 139.604 59.1557 137.576 60.1037 135.956H61.0397C62.3477 137.816 64.5437 139.676 66.5117 140.684C66.2837 140.912 66.0677 141.224 65.8997 141.488C63.9437 140.36 61.7357 138.464 60.6317 136.892ZM60.1517 139.892H61.0997V146.972H60.1517V139.892ZM75.9317 140.168H76.8677V144.176C76.8677 144.728 76.7477 145.028 76.3037 145.172C75.8717 145.328 75.1277 145.328 73.9877 145.328C73.9517 145.04 73.8197 144.656 73.6997 144.38C74.5877 144.416 75.4037 144.416 75.6317 144.392C75.8717 144.392 75.9317 144.332 75.9317 144.164V140.168ZM70.9997 140.708H71.9357V146.936H70.9997V140.708ZM67.8437 140.168H76.3277V141.032H67.8437V140.168ZM67.3397 137.288H78.0197V138.152H67.3397V137.288ZM70.1477 135.92H71.0597V139.52H70.1477V135.92ZM74.2877 135.92H75.2237V139.52H74.2877V135.92ZM84.1277 135.92H85.0397V140.012H84.1277V135.92ZM81.5117 140.432V142.58H87.7877V140.432H81.5117ZM80.6597 139.58H88.6997V143.42H80.6597V139.58ZM84.5477 137.204H89.5997V138.056H84.5477V137.204ZM82.7477 144.464L83.6117 144.392C83.7797 145.172 83.9117 146.156 83.9237 146.744L82.9997 146.864C82.9997 146.252 82.9037 145.244 82.7477 144.464ZM85.2317 144.476L86.0477 144.308C86.4197 145.028 86.8157 146 86.9597 146.612L86.0717 146.828C85.9517 146.228 85.5917 145.232 85.2317 144.476ZM87.6797 144.38L88.4837 144.08C89.0957 144.824 89.7917 145.844 90.0797 146.516L89.2277 146.864C88.9517 146.204 88.2917 145.148 87.6797 144.38ZM80.8037 144.152L81.6557 144.368C81.2597 145.304 80.6477 146.324 79.9997 146.96L79.1717 146.552C79.8077 146.012 80.4317 145.04 80.8037 144.152ZM92.6058 142.062V146H91.6001V139.455H92.5717V140.477H92.657C92.8104 140.145 93.0433 139.878 93.3558 139.676C93.6683 139.472 94.0717 139.369 94.5661 139.369C95.0092 139.369 95.397 139.46 95.7294 139.642C96.0618 139.821 96.3203 140.094 96.505 140.46C96.6896 140.824 96.782 141.284 96.782 141.841V146H95.7763V141.909C95.7763 141.395 95.6428 140.994 95.3757 140.707C95.1087 140.418 94.7422 140.273 94.2763 140.273C93.9553 140.273 93.6683 140.342 93.4155 140.482C93.1655 140.621 92.968 140.824 92.8232 141.091C92.6783 141.358 92.6058 141.682 92.6058 142.062ZM101.19 137.273V146H100.134V138.381H100.082L97.9517 139.795V138.722L100.134 137.273H101.19ZM103.397 136.712H109.553V137.528H103.397V136.712ZM103.757 142.424H109.205V143.24H103.757V142.424ZM106.049 140.996H106.937V145.7L106.049 145.832V140.996ZM103.265 145.7C104.825 145.532 107.261 145.208 109.577 144.896L109.601 145.736C107.369 146.048 105.005 146.384 103.409 146.6L103.265 145.7ZM103.373 139.976C104.741 139.928 106.853 139.832 108.917 139.724L108.893 140.516C106.925 140.636 104.873 140.744 103.445 140.828L103.373 139.976ZM107.201 138.512L107.873 138.14C108.605 138.98 109.445 140.108 109.793 140.828L109.073 141.26C108.725 140.528 107.921 139.364 107.201 138.512ZM105.473 137.144L106.445 137.336C106.025 138.392 105.509 139.712 105.065 140.54L104.273 140.348C104.693 139.496 105.209 138.092 105.473 137.144ZM110.081 137.372H110.945V144.02H110.081V137.372ZM112.913 136.268H113.801V145.748C113.801 146.372 113.657 146.648 113.261 146.792C112.865 146.948 112.133 146.972 111.161 146.972C111.113 146.72 110.981 146.3 110.849 146.024C111.653 146.06 112.397 146.048 112.637 146.048C112.853 146.036 112.913 145.976 112.913 145.76V136.268ZM115.445 143.552H126.137V144.392H115.445V143.552ZM115.781 137.336H125.849V138.164H115.781V137.336ZM118.229 139.376H123.377V140.144H118.229V139.376ZM118.229 141.452H123.377V142.232H118.229V141.452ZM117.653 135.944H118.541V143.924H117.653V135.944ZM123.017 135.944H123.929V143.924H123.017V135.944ZM121.673 145.232L122.285 144.656C123.713 145.16 125.237 145.82 126.173 146.324L125.357 146.912C124.505 146.408 123.077 145.748 121.673 145.232ZM119.129 144.584L119.921 145.16C118.853 145.82 117.221 146.516 115.925 146.936C115.793 146.756 115.517 146.444 115.325 146.252C116.621 145.88 118.277 145.172 119.129 144.584ZM127.361 141.284H138.257V142.184H127.361V141.284ZM132.353 139.352H133.289V145.808C133.289 146.408 133.121 146.684 132.665 146.828C132.221 146.972 131.441 146.996 130.289 146.996C130.217 146.732 130.049 146.324 129.893 146.06C130.865 146.096 131.753 146.096 132.017 146.084C132.269 146.072 132.353 146.012 132.353 145.796V139.352ZM128.597 136.76H136.433V137.648H128.597V136.76ZM136.121 136.76H136.361L136.565 136.712L137.249 137.216C136.157 138.32 134.453 139.508 133.049 140.228C132.917 140.024 132.641 139.736 132.461 139.58C133.769 138.956 135.365 137.816 136.121 136.964V136.76ZM148.049 140.168H148.985V144.176C148.985 144.728 148.865 145.028 148.421 145.172C147.989 145.328 147.245 145.328 146.105 145.328C146.069 145.04 145.937 144.656 145.817 144.38C146.705 144.416 147.521 144.416 147.749 144.392C147.989 144.392 148.049 144.332 148.049 144.164V140.168ZM143.117 140.708H144.053V146.936H143.117V140.708ZM139.961 140.168H148.445V141.032H139.961V140.168ZM139.457 137.288H150.137V138.152H139.457V137.288ZM142.265 135.92H143.177V139.52H142.265V135.92ZM146.405 135.92H147.341V139.52H146.405V135.92ZM156.245 135.92H157.157V140.012H156.245V135.92ZM153.629 140.432V142.58H159.905V140.432H153.629ZM152.777 139.58H160.817V143.42H152.777V139.58ZM156.665 137.204H161.717V138.056H156.665V137.204ZM154.865 144.464L155.729 144.392C155.897 145.172 156.029 146.156 156.041 146.744L155.117 146.864C155.117 146.252 155.021 145.244 154.865 144.464ZM157.349 144.476L158.165 144.308C158.537 145.028 158.933 146 159.077 146.612L158.189 146.828C158.069 146.228 157.709 145.232 157.349 144.476ZM159.797 144.38L160.601 144.08C161.213 144.824 161.909 145.844 162.197 146.516L161.345 146.864C161.069 146.204 160.409 145.148 159.797 144.38ZM152.921 144.152L153.773 144.368C153.377 145.304 152.765 146.324 152.117 146.96L151.289 146.552C151.925 146.012 152.549 145.04 152.921 144.152ZM164.723 142.062V146H163.717V139.455H164.689V140.477H164.774C164.928 140.145 165.161 139.878 165.473 139.676C165.786 139.472 166.189 139.369 166.683 139.369C167.126 139.369 167.514 139.46 167.847 139.642C168.179 139.821 168.438 140.094 168.622 140.46C168.807 140.824 168.899 141.284 168.899 141.841V146H167.893V141.909C167.893 141.395 167.76 140.994 167.493 140.707C167.226 140.418 166.859 140.273 166.393 140.273C166.072 140.273 165.786 140.342 165.533 140.482C165.283 140.621 165.085 140.824 164.94 141.091C164.795 141.358 164.723 141.682 164.723 142.062ZM171.674 143.614L171.657 142.369H171.862L174.725 139.455H175.97L172.919 142.54H172.833L171.674 143.614ZM170.737 146V137.273H171.743V146H170.737ZM174.896 146L172.339 142.761L173.055 142.062L176.174 146H174.896ZM177.916 137.852H181.564V145.7H177.916V144.884H180.724V138.656H177.916V137.852ZM177.376 137.852H178.216V146.66H177.376V137.852ZM177.856 141.188H181.168V141.992H177.856V141.188ZM179.212 135.896L180.184 136.076C179.944 136.82 179.644 137.648 179.404 138.188L178.684 138.008C178.888 137.432 179.116 136.52 179.212 135.896ZM183.268 137.816H186.952V138.656H183.268V137.816ZM186.64 137.816H187.48C187.48 137.816 187.48 138.152 187.48 138.284C187.288 143.792 187.12 145.652 186.64 146.24C186.376 146.588 186.1 146.696 185.68 146.732C185.272 146.78 184.564 146.756 183.892 146.72C183.868 146.456 183.76 146.084 183.592 145.844C184.372 145.904 185.092 145.916 185.368 145.916C185.608 145.916 185.752 145.88 185.884 145.724C186.28 145.292 186.472 143.3 186.64 138.008V137.816ZM183.52 135.872L184.384 136.076C183.94 137.864 183.232 139.628 182.404 140.768C182.248 140.624 181.876 140.372 181.66 140.252C182.476 139.196 183.136 137.54 183.52 135.872ZM182.968 140.936L183.664 140.528C184.348 141.38 185.176 142.544 185.56 143.252L184.792 143.732C184.432 143 183.628 141.812 182.968 140.936ZM197.596 140.168H198.532V144.176C198.532 144.728 198.412 145.028 197.968 145.172C197.536 145.328 196.792 145.328 195.652 145.328C195.616 145.04 195.484 144.656 195.364 144.38C196.252 144.416 197.068 144.416 197.296 144.392C197.536 144.392 197.596 144.332 197.596 144.164V140.168ZM192.664 140.708H193.6V146.936H192.664V140.708ZM189.508 140.168H197.992V141.032H189.508V140.168ZM189.004 137.288H199.684V138.152H189.004V137.288ZM191.812 135.92H192.724V139.52H191.812V135.92ZM195.952 135.92H196.888V139.52H195.952V135.92ZM205.792 135.92H206.704V140.012H205.792V135.92ZM203.176 140.432V142.58H209.452V140.432H203.176ZM202.324 139.58H210.364V143.42H202.324V139.58ZM206.212 137.204H211.264V138.056H206.212V137.204ZM204.412 144.464L205.276 144.392C205.444 145.172 205.576 146.156 205.588 146.744L204.664 146.864C204.664 146.252 204.568 145.244 204.412 144.464ZM206.896 144.476L207.712 144.308C208.084 145.028 208.48 146 208.624 146.612L207.736 146.828C207.616 146.228 207.256 145.232 206.896 144.476ZM209.344 144.38L210.148 144.08C210.76 144.824 211.456 145.844 211.744 146.516L210.892 146.864C210.616 146.204 209.956 145.148 209.344 144.38ZM202.468 144.152L203.32 144.368C202.924 145.304 202.312 146.324 201.664 146.96L200.836 146.552C201.472 146.012 202.096 145.04 202.468 144.152ZM215.788 138.956H221.884V139.7H215.788V138.956ZM215.104 141.968H223.024V142.748H215.104V141.968ZM218.836 142.292H219.736V145.94C219.736 146.48 219.604 146.732 219.172 146.852C218.74 146.996 218.02 146.984 216.928 146.984C216.892 146.732 216.748 146.396 216.616 146.144C217.504 146.18 218.32 146.18 218.548 146.168C218.776 146.144 218.836 146.096 218.836 145.928V142.292ZM222.76 141.968H222.928L223.084 141.92L223.732 142.208C223.072 143.12 222.34 144.128 221.692 144.752L220.96 144.392C221.548 143.816 222.268 142.904 222.76 142.124V141.968ZM221.608 138.956H221.836L222.04 138.908L222.628 139.364C221.8 140.216 220.552 141.116 219.412 141.656C219.292 141.488 219.064 141.236 218.908 141.116C219.904 140.648 221.044 139.784 221.608 139.148V138.956ZM218.224 135.932H219.148V137.78H218.224V135.932ZM214.216 137.264H223.756V138.116H214.216V137.264ZM213.784 137.264H214.66V140.6C214.66 142.46 214.504 145.184 213.472 146.996C213.316 146.84 212.92 146.6 212.716 146.492C213.7 144.776 213.784 142.34 213.784 140.6V137.264ZM216.796 140.744L217.336 140.204C218.536 140.672 220.132 141.404 220.984 141.92L220.408 142.52C219.616 142.016 218.008 141.236 216.796 140.744ZM231.496 137.3H232.372V143.864H231.496V137.3ZM234.412 136.148H235.312V145.784C235.312 146.396 235.144 146.66 234.784 146.804C234.388 146.96 233.74 146.984 232.648 146.972C232.588 146.732 232.456 146.336 232.324 146.084C233.14 146.108 233.884 146.096 234.1 146.096C234.328 146.084 234.412 146.012 234.412 145.796V136.148ZM226.804 139.16H230.068V140H226.804V139.16ZM225.052 136.544H231.028V137.384H225.052V136.544ZM225.952 141.692L226.372 141.032C227.272 141.536 228.436 142.28 229.012 142.76L228.556 143.516C227.992 143.012 226.84 142.232 225.952 141.692ZM229.732 139.16H229.912L230.08 139.124L230.644 139.328C229.984 143.252 228.244 145.724 226.024 146.996C225.892 146.792 225.556 146.468 225.352 146.324C227.536 145.16 229.18 142.892 229.732 139.364V139.16ZM227.224 136.94L228.136 137.108C227.62 139.184 226.732 141.512 225.232 142.94C225.076 142.772 224.788 142.496 224.608 142.34C226 141.02 226.852 138.8 227.224 136.94ZM6.36 160.712H10.32V161.504H6.36V160.712ZM6.948 152.156H10.116V152.936H6.948V152.156ZM6.012 157.616H10.728V161.9H9.864V158.396H6.84V161.936H6.012V157.616ZM9.792 152.156H9.948L10.116 152.12L10.692 152.36C9.768 155.312 7.572 157.28 5.292 158.252C5.184 158.048 4.944 157.736 4.764 157.568C6.888 156.752 9.012 154.82 9.792 152.312V152.156ZM7.152 150.92L8.016 151.124C7.476 152.756 6.588 154.28 5.592 155.276C5.448 155.12 5.1 154.832 4.884 154.7C5.868 153.8 6.696 152.396 7.152 150.92ZM6.912 152.648C7.608 154.364 9.216 156.428 11.676 157.364C11.484 157.532 11.232 157.88 11.112 158.108C8.64 157.04 7.056 154.868 6.324 153.14L6.912 152.648ZM1.068 156.248H1.824V160.604H1.068V156.248ZM1.872 152.216V154.328H4.128V152.216H1.872ZM1.068 151.424H4.968V155.12H1.068V151.424ZM2.76 154.724H3.576V160.208H2.76V154.724ZM0.444 160.508C1.632 160.268 3.432 159.848 5.16 159.44L5.244 160.244C3.6 160.652 1.872 161.072 0.612 161.384L0.444 160.508ZM3.048 156.86H5.076V157.664H3.048V156.86ZM16.5 151.568H22.236V152.336H16.5V151.568ZM22.008 151.568H22.176L22.332 151.532L22.908 151.784C21.744 154.604 19.092 156.2 16.284 157.004C16.2 156.788 15.996 156.452 15.828 156.284C18.456 155.624 21.012 154.088 22.008 151.712V151.568ZM18.024 152.288C19.02 154.232 21.12 155.636 23.724 156.176C23.532 156.356 23.28 156.704 23.16 156.944C20.508 156.284 18.384 154.76 17.256 152.564L18.024 152.288ZM15.888 160.796H23.508V161.6H15.888V160.796ZM19.344 156.5H20.22V161.168H19.344V156.5ZM16.656 158.108H22.848V158.9H16.656V158.108ZM15.492 153.296L16.296 153.62C15.42 155.096 14.052 156.584 12.792 157.544C12.696 157.352 12.42 156.908 12.264 156.728C13.464 155.888 14.724 154.604 15.492 153.296ZM15.084 150.932L15.948 151.28C15.204 152.336 14.016 153.5 12.9 154.232C12.804 154.028 12.576 153.668 12.432 153.488C13.428 152.852 14.544 151.808 15.084 150.932ZM14.232 155.72L15.072 154.868L15.108 154.892V161.96H14.232V155.72ZM26.856 161.888C26.796 161.672 26.616 161.288 26.484 161.096C26.688 161 26.976 160.82 26.976 160.352V150.992H27.912V161.084C27.912 161.084 26.856 161.564 26.856 161.888ZM26.856 161.888L26.784 161.072L27.264 160.712L30.804 159.836C30.804 160.1 30.84 160.484 30.888 160.676C27.588 161.564 27.144 161.708 26.856 161.888ZM24.66 155.624H35.328V156.524H24.66V155.624ZM30.528 156.032C31.368 158.336 33.108 160.064 35.604 160.772C35.376 160.964 35.1 161.348 34.968 161.612C32.376 160.76 30.648 158.876 29.7 156.248L30.528 156.032ZM33.228 151.184L34.128 151.568C32.94 152.96 31.116 154.208 29.484 155C29.328 154.808 28.968 154.436 28.74 154.268C30.42 153.584 32.172 152.432 33.228 151.184ZM38.7 154.292H47.232V155.036H38.7V154.292ZM38.868 157.796H45.732V158.54H38.868V157.796ZM40.632 153.248H41.484V156.308H44.412V153.248H45.288V157.028H40.632V153.248ZM45.492 157.796H45.672L45.84 157.748L46.404 158.06C45.084 160.556 42.012 161.564 38.784 161.972C38.712 161.744 38.544 161.408 38.4 161.204C41.436 160.916 44.4 159.98 45.492 157.928V157.796ZM41.004 158.42C42.144 160.016 44.628 160.916 47.532 161.216C47.34 161.408 47.112 161.756 47.004 161.984C44.028 161.6 41.532 160.58 40.224 158.708L41.004 158.42ZM41.88 150.932H42.804V152.564H41.88V150.932ZM37.884 152.12H47.316V152.936H37.884V152.12ZM37.44 152.12H38.304V155.576C38.304 157.448 38.148 160.16 37.116 161.984C36.96 161.828 36.576 161.576 36.372 161.48C37.356 159.764 37.44 157.328 37.44 155.576V152.12ZM49.6534 161.068C49.4432 161.068 49.2628 160.993 49.1122 160.842C48.9616 160.692 48.8864 160.511 48.8864 160.301C48.8864 160.091 48.9616 159.911 49.1122 159.76C49.2628 159.609 49.4432 159.534 49.6534 159.534C49.8636 159.534 50.044 159.609 50.1946 159.76C50.3452 159.911 50.4205 160.091 50.4205 160.301C50.4205 160.44 50.3849 160.568 50.3139 160.685C50.2457 160.801 50.1534 160.895 50.0369 160.966C49.9233 161.034 49.7955 161.068 49.6534 161.068ZM49.6534 156.21C49.4432 156.21 49.2628 156.135 49.1122 155.984C48.9616 155.834 48.8864 155.653 48.8864 155.443C48.8864 155.233 48.9616 155.053 49.1122 154.902C49.2628 154.751 49.4432 154.676 49.6534 154.676C49.8636 154.676 50.044 154.751 50.1946 154.902C50.3452 155.053 50.4205 155.233 50.4205 155.443C50.4205 155.582 50.3849 155.71 50.3139 155.827C50.2457 155.943 50.1534 156.037 50.0369 156.108C49.9233 156.176 49.7955 156.21 49.6534 156.21ZM61.0397 160.712H64.9997V161.504H61.0397V160.712ZM61.6277 152.156H64.7957V152.936H61.6277V152.156ZM60.6917 157.616H65.4077V161.9H64.5437V158.396H61.5197V161.936H60.6917V157.616ZM64.4717 152.156H64.6277L64.7957 152.12L65.3717 152.36C64.4477 155.312 62.2517 157.28 59.9717 158.252C59.8637 158.048 59.6237 157.736 59.4437 157.568C61.5677 156.752 63.6917 154.82 64.4717 152.312V152.156ZM61.8317 150.92L62.6957 151.124C62.1557 152.756 61.2677 154.28 60.2717 155.276C60.1277 155.12 59.7797 154.832 59.5637 154.7C60.5477 153.8 61.3757 152.396 61.8317 150.92ZM61.5917 152.648C62.2877 154.364 63.8957 156.428 66.3557 157.364C66.1637 157.532 65.9117 157.88 65.7917 158.108C63.3197 157.04 61.7357 154.868 61.0037 153.14L61.5917 152.648ZM55.7477 156.248H56.5037V160.604H55.7477V156.248ZM56.5517 152.216V154.328H58.8077V152.216H56.5517ZM55.7477 151.424H59.6477V155.12H55.7477V151.424ZM57.4397 154.724H58.2557V160.208H57.4397V154.724ZM55.1237 160.508C56.3117 160.268 58.1117 159.848 59.8397 159.44L59.9237 160.244C58.2797 160.652 56.5517 161.072 55.2917 161.384L55.1237 160.508ZM57.7277 156.86H59.7557V157.664H57.7277V156.86ZM71.1797 151.568H76.9157V152.336H71.1797V151.568ZM76.6877 151.568H76.8557L77.0117 151.532L77.5877 151.784C76.4237 154.604 73.7717 156.2 70.9637 157.004C70.8797 156.788 70.6757 156.452 70.5077 156.284C73.1357 155.624 75.6917 154.088 76.6877 151.712V151.568ZM72.7037 152.288C73.6997 154.232 75.7997 155.636 78.4037 156.176C78.2117 156.356 77.9597 156.704 77.8397 156.944C75.1877 156.284 73.0637 154.76 71.9357 152.564L72.7037 152.288ZM70.5677 160.796H78.1877V161.6H70.5677V160.796ZM74.0237 156.5H74.8997V161.168H74.0237V156.5ZM71.3357 158.108H77.5277V158.9H71.3357V158.108ZM70.1717 153.296L70.9757 153.62C70.0997 155.096 68.7317 156.584 67.4717 157.544C67.3757 157.352 67.0997 156.908 66.9437 156.728C68.1437 155.888 69.4037 154.604 70.1717 153.296ZM69.7637 150.932L70.6277 151.28C69.8837 152.336 68.6957 153.5 67.5797 154.232C67.4837 154.028 67.2557 153.668 67.1117 153.488C68.1077 152.852 69.2237 151.808 69.7637 150.932ZM68.9117 155.72L69.7517 154.868L69.7877 154.892V161.96H68.9117V155.72ZM79.8317 153.068H89.5037V158.72H88.5677V153.956H80.7317V158.78H79.8317V153.068ZM80.3117 157.148H89.1077V158.024H80.3117V157.148ZM84.1757 150.92H85.1117V161.948H84.1757V150.92ZM99.9317 155.168H100.868V159.176C100.868 159.728 100.748 160.028 100.304 160.172C99.8717 160.328 99.1277 160.328 97.9877 160.328C97.9517 160.04 97.8197 159.656 97.6997 159.38C98.5877 159.416 99.4037 159.416 99.6317 159.392C99.8717 159.392 99.9317 159.332 99.9317 159.164V155.168ZM94.9997 155.708H95.9357V161.936H94.9997V155.708ZM91.8437 155.168H100.328V156.032H91.8437V155.168ZM91.3397 152.288H102.02V153.152H91.3397V152.288ZM94.1477 150.92H95.0597V154.52H94.1477V150.92ZM98.2877 150.92H99.2237V154.52H98.2877V150.92ZM108.128 150.92H109.04V155.012H108.128V150.92ZM105.512 155.432V157.58H111.788V155.432H105.512ZM104.66 154.58H112.7V158.42H104.66V154.58ZM108.548 152.204H113.6V153.056H108.548V152.204ZM106.748 159.464L107.612 159.392C107.78 160.172 107.912 161.156 107.924 161.744L107 161.864C107 161.252 106.904 160.244 106.748 159.464ZM109.232 159.476L110.048 159.308C110.42 160.028 110.816 161 110.96 161.612L110.072 161.828C109.952 161.228 109.592 160.232 109.232 159.476ZM111.68 159.38L112.484 159.08C113.096 159.824 113.792 160.844 114.08 161.516L113.228 161.864C112.952 161.204 112.292 160.148 111.68 159.38ZM104.804 159.152L105.656 159.368C105.26 160.304 104.648 161.324 104 161.96L103.172 161.552C103.808 161.012 104.432 160.04 104.804 159.152ZM118.124 153.956H124.22V154.7H118.124V153.956ZM117.44 156.968H125.36V157.748H117.44V156.968ZM121.172 157.292H122.072V160.94C122.072 161.48 121.94 161.732 121.508 161.852C121.076 161.996 120.356 161.984 119.264 161.984C119.228 161.732 119.084 161.396 118.952 161.144C119.84 161.18 120.656 161.18 120.884 161.168C121.112 161.144 121.172 161.096 121.172 160.928V157.292ZM125.096 156.968H125.264L125.42 156.92L126.068 157.208C125.408 158.12 124.676 159.128 124.028 159.752L123.296 159.392C123.884 158.816 124.604 157.904 125.096 157.124V156.968ZM123.944 153.956H124.172L124.376 153.908L124.964 154.364C124.136 155.216 122.888 156.116 121.748 156.656C121.628 156.488 121.4 156.236 121.244 156.116C122.24 155.648 123.38 154.784 123.944 154.148V153.956ZM120.56 150.932H121.484V152.78H120.56V150.932ZM116.552 152.264H126.092V153.116H116.552V152.264ZM116.12 152.264H116.996V155.6C116.996 157.46 116.84 160.184 115.808 161.996C115.652 161.84 115.256 161.6 115.052 161.492C116.036 159.776 116.12 157.34 116.12 155.6V152.264ZM119.132 155.744L119.672 155.204C120.872 155.672 122.468 156.404 123.32 156.92L122.744 157.52C121.952 157.016 120.344 156.236 119.132 155.744ZM133.832 152.3H134.708V158.864H133.832V152.3ZM136.748 151.148H137.648V160.784C137.648 161.396 137.48 161.66 137.12 161.804C136.724 161.96 136.076 161.984 134.984 161.972C134.924 161.732 134.792 161.336 134.66 161.084C135.476 161.108 136.22 161.096 136.436 161.096C136.664 161.084 136.748 161.012 136.748 160.796V151.148ZM129.14 154.16H132.404V155H129.14V154.16ZM127.388 151.544H133.364V152.384H127.388V151.544ZM128.288 156.692L128.708 156.032C129.608 156.536 130.772 157.28 131.348 157.76L130.892 158.516C130.328 158.012 129.176 157.232 128.288 156.692ZM132.068 154.16H132.248L132.416 154.124L132.98 154.328C132.32 158.252 130.58 160.724 128.36 161.996C128.228 161.792 127.892 161.468 127.688 161.324C129.872 160.16 131.516 157.892 132.068 154.364V154.16ZM129.56 151.94L130.472 152.108C129.956 154.184 129.068 156.512 127.568 157.94C127.412 157.772 127.124 157.496 126.944 157.34C128.336 156.02 129.188 153.8 129.56 151.94ZM140.252 152.852H143.9V160.7H140.252V159.884H143.06V153.656H140.252V152.852ZM139.712 152.852H140.552V161.66H139.712V152.852ZM140.192 156.188H143.504V156.992H140.192V156.188ZM141.548 150.896L142.52 151.076C142.28 151.82 141.98 152.648 141.74 153.188L141.02 153.008C141.224 152.432 141.452 151.52 141.548 150.896ZM145.604 152.816H149.288V153.656H145.604V152.816ZM148.976 152.816H149.816C149.816 152.816 149.816 153.152 149.816 153.284C149.624 158.792 149.456 160.652 148.976 161.24C148.712 161.588 148.436 161.696 148.016 161.732C147.608 161.78 146.9 161.756 146.228 161.72C146.204 161.456 146.096 161.084 145.928 160.844C146.708 160.904 147.428 160.916 147.704 160.916C147.944 160.916 148.088 160.88 148.22 160.724C148.616 160.292 148.808 158.3 148.976 153.008V152.816ZM145.856 150.872L146.72 151.076C146.276 152.864 145.568 154.628 144.74 155.768C144.584 155.624 144.212 155.372 143.996 155.252C144.812 154.196 145.472 152.54 145.856 150.872ZM145.304 155.936L146 155.528C146.684 156.38 147.512 157.544 147.896 158.252L147.128 158.732C146.768 158 145.964 156.812 145.304 155.936ZM156.632 151.892C155.636 153.404 153.608 155.312 151.472 156.56C151.34 156.356 151.088 156.032 150.884 155.84C153.068 154.604 155.156 152.576 156.104 150.956H157.04C158.348 152.816 160.544 154.676 162.512 155.684C162.284 155.912 162.068 156.224 161.9 156.488C159.944 155.36 157.736 153.464 156.632 151.892ZM156.152 154.892H157.1V161.972H156.152V154.892ZM163.148 157.328H169.04V158.084H163.148V157.328ZM163.22 153.14H169.004V153.872H163.22V153.14ZM165.38 156.296L166.22 156.476C165.68 157.652 164.924 159.116 164.372 160.064L163.58 159.788C164.12 158.876 164.876 157.4 165.38 156.296ZM167.18 157.772L168.02 157.88C167.612 160.22 166.352 161.372 163.58 161.96C163.52 161.72 163.34 161.396 163.172 161.216C165.68 160.796 166.808 159.812 167.18 157.772ZM167.936 151.16L168.704 151.496C168.356 152.048 167.96 152.648 167.624 153.056L167.024 152.756C167.324 152.324 167.72 151.628 167.936 151.16ZM165.704 150.92H166.532V156.44H165.704V150.92ZM163.664 151.496L164.348 151.208C164.684 151.688 165.008 152.324 165.128 152.756L164.42 153.08C164.312 152.648 164 151.988 163.664 151.496ZM165.716 153.464L166.328 153.824C165.74 154.832 164.612 155.9 163.58 156.464C163.472 156.26 163.256 155.96 163.088 155.78C164.084 155.348 165.188 154.388 165.716 153.464ZM166.436 153.884C166.868 154.112 168.332 155.036 168.68 155.288L168.188 155.948C167.756 155.54 166.508 154.604 166.004 154.268L166.436 153.884ZM169.916 153.14H174.188V153.98H169.916V153.14ZM170.216 150.92L171.128 151.052C170.732 153.404 170.024 155.552 168.968 156.956C168.824 156.788 168.452 156.488 168.236 156.344C169.256 155.072 169.88 153.044 170.216 150.92ZM172.58 153.62L173.492 153.716C172.916 157.856 171.644 160.436 168.62 161.996C168.524 161.78 168.26 161.384 168.08 161.192C170.936 159.848 172.088 157.424 172.58 153.62ZM170.396 153.884C170.924 157.184 172.076 160.016 174.308 161.192C174.092 161.372 173.804 161.72 173.672 161.96C171.32 160.58 170.18 157.652 169.58 154.016L170.396 153.884ZM164.3 159.62L164.78 159.008C166.22 159.56 167.708 160.352 168.572 161.012L167.948 161.66C167.12 160.988 165.692 160.184 164.3 159.62ZM1.584 166.496H2.496V170.012C2.496 172.04 2.34 174.98 1.164 176.936C0.996 176.804 0.588 176.576 0.36 176.492C1.488 174.596 1.584 171.92 1.584 170.012V166.496ZM2.22 166.496H10.62V169.508H2.22V168.728H9.72V167.288H2.22V166.496ZM3.648 170.54H10.476V171.332H3.648V170.54ZM2.868 172.592H11.304V173.396H2.868V172.592ZM8.22 174.068L9 173.732C9.672 174.656 10.524 175.94 10.92 176.672L10.092 177.08C9.708 176.324 8.892 175.016 8.22 174.068ZM3.456 176.78C3.396 176.588 3.24 176.168 3.132 175.94C3.336 175.892 3.564 175.676 3.828 175.388C4.104 175.088 4.98 173.96 5.532 172.868L6.552 173.132C5.82 174.32 4.896 175.508 4.044 176.3V176.324C4.044 176.324 3.456 176.6 3.456 176.78ZM3.456 176.78L3.42 176.12L3.996 175.82L9.768 175.472C9.816 175.712 9.9 176.024 9.96 176.204C4.416 176.588 3.828 176.636 3.456 176.78ZM12.468 172.328H18.36V173.084H12.468V172.328ZM12.54 168.14H18.324V168.872H12.54V168.14ZM14.7 171.296L15.54 171.476C15 172.652 14.244 174.116 13.692 175.064L12.9 174.788C13.44 173.876 14.196 172.4 14.7 171.296ZM16.5 172.772L17.34 172.88C16.932 175.22 15.672 176.372 12.9 176.96C12.84 176.72 12.66 176.396 12.492 176.216C15 175.796 16.128 174.812 16.5 172.772ZM17.256 166.16L18.024 166.496C17.676 167.048 17.28 167.648 16.944 168.056L16.344 167.756C16.644 167.324 17.04 166.628 17.256 166.16ZM15.024 165.92H15.852V171.44H15.024V165.92ZM12.984 166.496L13.668 166.208C14.004 166.688 14.328 167.324 14.448 167.756L13.74 168.08C13.632 167.648 13.32 166.988 12.984 166.496ZM15.036 168.464L15.648 168.824C15.06 169.832 13.932 170.9 12.9 171.464C12.792 171.26 12.576 170.96 12.408 170.78C13.404 170.348 14.508 169.388 15.036 168.464ZM15.756 168.884C16.188 169.112 17.652 170.036 18 170.288L17.508 170.948C17.076 170.54 15.828 169.604 15.324 169.268L15.756 168.884ZM19.236 168.14H23.508V168.98H19.236V168.14ZM19.536 165.92L20.448 166.052C20.052 168.404 19.344 170.552 18.288 171.956C18.144 171.788 17.772 171.488 17.556 171.344C18.576 170.072 19.2 168.044 19.536 165.92ZM21.9 168.62L22.812 168.716C22.236 172.856 20.964 175.436 17.94 176.996C17.844 176.78 17.58 176.384 17.4 176.192C20.256 174.848 21.408 172.424 21.9 168.62ZM19.716 168.884C20.244 172.184 21.396 175.016 23.628 176.192C23.412 176.372 23.124 176.72 22.992 176.96C20.64 175.58 19.5 172.652 18.9 169.016L19.716 168.884ZM13.62 174.62L14.1 174.008C15.54 174.56 17.028 175.352 17.892 176.012L17.268 176.66C16.44 175.988 15.012 175.184 13.62 174.62ZM25.2784 171.636C25.2784 170.562 25.4176 169.575 25.696 168.675C25.9773 167.771 26.3778 166.94 26.8977 166.182H27.7841C27.5795 166.463 27.3878 166.81 27.2088 167.222C27.0327 167.631 26.8778 168.081 26.7443 168.572C26.6108 169.061 26.5057 169.567 26.429 170.089C26.3551 170.612 26.3182 171.128 26.3182 171.636C26.3182 172.312 26.3835 172.999 26.5142 173.695C26.6449 174.391 26.821 175.037 27.0426 175.634C27.2642 176.23 27.5114 176.716 27.7841 177.091H26.8977C26.3778 176.332 25.9773 175.503 25.696 174.602C25.4176 173.699 25.2784 172.71 25.2784 171.636ZM29.4045 176V167.273H30.4613V175.062H34.5181V176H29.4045ZM38.7624 176.136C38.1317 176.136 37.5877 175.997 37.1303 175.719C36.6758 175.438 36.3249 175.045 36.0778 174.543C35.8335 174.037 35.7113 173.449 35.7113 172.778C35.7113 172.108 35.8335 171.517 36.0778 171.006C36.3249 170.491 36.6687 170.091 37.109 169.804C37.5522 169.514 38.0692 169.369 38.6602 169.369C39.0011 169.369 39.3377 169.426 39.6701 169.54C40.0025 169.653 40.305 169.838 40.5778 170.094C40.8505 170.347 41.0678 170.682 41.2298 171.099C41.3917 171.517 41.4727 172.031 41.4727 172.642V173.068H36.4272V172.199H40.4499C40.4499 171.83 40.3761 171.5 40.2283 171.21C40.0835 170.92 39.8761 170.692 39.6062 170.524C39.3391 170.357 39.0238 170.273 38.6602 170.273C38.2596 170.273 37.913 170.372 37.6204 170.571C37.3306 170.767 37.1076 171.023 36.9513 171.338C36.7951 171.653 36.717 171.991 36.717 172.352V172.932C36.717 173.426 36.8022 173.845 36.9727 174.189C37.146 174.53 37.386 174.79 37.6928 174.969C37.9996 175.145 38.3562 175.233 38.7624 175.233C39.0266 175.233 39.2653 175.196 39.4783 175.122C39.6942 175.045 39.8803 174.932 40.0366 174.781C40.1928 174.628 40.3136 174.437 40.3988 174.21L41.3704 174.483C41.2681 174.812 41.0962 175.102 40.8548 175.352C40.6133 175.599 40.315 175.793 39.9599 175.932C39.6048 176.068 39.2056 176.136 38.7624 176.136ZM48.1555 169.455L45.7351 176H44.7124L42.2919 169.455H43.3828L45.1896 174.67H45.2578L47.0646 169.455H48.1555ZM51.9929 176.136C51.3622 176.136 50.8182 175.997 50.3608 175.719C49.9062 175.438 49.5554 175.045 49.3082 174.543C49.0639 174.037 48.9418 173.449 48.9418 172.778C48.9418 172.108 49.0639 171.517 49.3082 171.006C49.5554 170.491 49.8991 170.091 50.3395 169.804C50.7827 169.514 51.2997 169.369 51.8906 169.369C52.2315 169.369 52.5682 169.426 52.9006 169.54C53.233 169.653 53.5355 169.838 53.8082 170.094C54.081 170.347 54.2983 170.682 54.4602 171.099C54.6222 171.517 54.7031 172.031 54.7031 172.642V173.068H49.6577V172.199H53.6804C53.6804 171.83 53.6065 171.5 53.4588 171.21C53.3139 170.92 53.1065 170.692 52.8366 170.524C52.5696 170.357 52.2543 170.273 51.8906 170.273C51.4901 170.273 51.1435 170.372 50.8509 170.571C50.5611 170.767 50.3381 171.023 50.1818 171.338C50.0256 171.653 49.9474 171.991 49.9474 172.352V172.932C49.9474 173.426 50.0327 173.845 50.2031 174.189C50.3764 174.53 50.6165 174.79 50.9233 174.969C51.2301 175.145 51.5866 175.233 51.9929 175.233C52.2571 175.233 52.4957 175.196 52.7088 175.122C52.9247 175.045 53.1108 174.932 53.267 174.781C53.4233 174.628 53.544 174.437 53.6293 174.21L54.6009 174.483C54.4986 174.812 54.3267 175.102 54.0852 175.352C53.8438 175.599 53.5455 175.793 53.1903 175.932C52.8352 176.068 52.4361 176.136 51.9929 176.136ZM57.2386 167.273V176H56.233V167.273H57.2386ZM61.2283 172.318C61.2283 173.392 61.0877 174.381 60.8065 175.284C60.5281 176.185 60.1289 177.014 59.609 177.773H58.7227C58.9272 177.491 59.1175 177.145 59.2937 176.733C59.4727 176.324 59.6289 175.875 59.7624 175.386C59.896 174.895 59.9996 174.388 60.0735 173.865C60.1502 173.339 60.1886 172.824 60.1886 172.318C60.1886 171.642 60.1232 170.956 59.9925 170.26C59.8619 169.564 59.6857 168.918 59.4641 168.321C59.2425 167.724 58.9954 167.239 58.7227 166.864H59.609C60.1289 167.622 60.5281 168.453 60.8065 169.357C61.0877 170.257 61.2283 171.244 61.2283 172.318ZM64.1612 176.068C63.951 176.068 63.7706 175.993 63.62 175.842C63.4695 175.692 63.3942 175.511 63.3942 175.301C63.3942 175.091 63.4695 174.911 63.62 174.76C63.7706 174.609 63.951 174.534 64.1612 174.534C64.3714 174.534 64.5518 174.609 64.7024 174.76C64.853 174.911 64.9283 175.091 64.9283 175.301C64.9283 175.44 64.8928 175.568 64.8217 175.685C64.7536 175.801 64.6612 175.895 64.5447 175.966C64.4311 176.034 64.3033 176.068 64.1612 176.068ZM64.1612 171.21C63.951 171.21 63.7706 171.135 63.62 170.984C63.4695 170.834 63.3942 170.653 63.3942 170.443C63.3942 170.233 63.4695 170.053 63.62 169.902C63.7706 169.751 63.951 169.676 64.1612 169.676C64.3714 169.676 64.5518 169.751 64.7024 169.902C64.853 170.053 64.9283 170.233 64.9283 170.443C64.9283 170.582 64.8928 170.71 64.8217 170.827C64.7536 170.943 64.6612 171.037 64.5447 171.108C64.4311 171.176 64.3033 171.21 64.1612 171.21ZM75.1155 166.556H79.9395V171.644H75.1155V170.864H79.0755V167.348H75.1155V166.556ZM75.1755 168.704H79.4955V169.496H75.1755V168.704ZM74.6955 166.556H75.5475V176.108H74.6955V166.556ZM73.7115 175.868C74.7555 175.7 76.3155 175.376 77.8635 175.076L77.9235 175.88C76.5435 176.192 75.0795 176.504 73.9755 176.744L73.7115 175.868ZM79.9755 172.052L80.5875 172.724C79.8315 173.312 78.8835 173.996 78.1635 174.428L77.7195 173.888C78.4035 173.444 79.4115 172.628 79.9755 172.052ZM77.2995 171.176C77.8155 173.504 78.9555 175.436 80.8155 176.24C80.6115 176.42 80.3355 176.744 80.2035 176.996C78.2475 176.024 77.1075 173.936 76.5315 171.332L77.2995 171.176ZM69.7995 168.5H74.0355V169.352H69.7995V168.5ZM71.6115 165.92H72.4635V176.948H71.6115V165.92ZM71.5635 169.028L72.1395 169.232C71.7435 171.152 70.8795 173.504 69.9795 174.716C69.8835 174.476 69.6675 174.116 69.5115 173.912C70.3635 172.832 71.2035 170.756 71.5635 169.028ZM72.4035 170.324C72.7155 170.66 73.8675 172.124 74.1075 172.484L73.5555 173.192C73.2555 172.592 72.3195 171.224 71.9595 170.744L72.4035 170.324ZM90.4395 170.168H91.3755V174.176C91.3755 174.728 91.2555 175.028 90.8115 175.172C90.3795 175.328 89.6355 175.328 88.4955 175.328C88.4595 175.04 88.3275 174.656 88.2075 174.38C89.0955 174.416 89.9115 174.416 90.1395 174.392C90.3795 174.392 90.4395 174.332 90.4395 174.164V170.168ZM85.5075 170.708H86.4435V176.936H85.5075V170.708ZM82.3515 170.168H90.8355V171.032H82.3515V170.168ZM81.8475 167.288H92.5275V168.152H81.8475V167.288ZM84.6555 165.92H85.5675V169.52H84.6555V165.92ZM88.7955 165.92H89.7315V169.52H88.7955V165.92ZM98.6355 165.92H99.5475V170.012H98.6355V165.92ZM96.0195 170.432V172.58H102.296V170.432H96.0195ZM95.1675 169.58H103.208V173.42H95.1675V169.58ZM99.0555 167.204H104.108V168.056H99.0555V167.204ZM97.2555 174.464L98.1195 174.392C98.2875 175.172 98.4195 176.156 98.4315 176.744L97.5075 176.864C97.5075 176.252 97.4115 175.244 97.2555 174.464ZM99.7395 174.476L100.556 174.308C100.928 175.028 101.324 176 101.468 176.612L100.58 176.828C100.46 176.228 100.1 175.232 99.7395 174.476ZM102.188 174.38L102.992 174.08C103.604 174.824 104.3 175.844 104.588 176.516L103.736 176.864C103.46 176.204 102.8 175.148 102.188 174.38ZM95.3115 174.152L96.1635 174.368C95.7675 175.304 95.1555 176.324 94.5075 176.96L93.6795 176.552C94.3155 176.012 94.9395 175.04 95.3115 174.152ZM106.16 168.812H115.424V169.712H106.16V168.812ZM115.052 168.812H115.988C115.988 168.812 115.988 169.148 115.976 169.28C115.796 174.092 115.628 175.796 115.148 176.348C114.884 176.684 114.596 176.792 114.164 176.828C113.744 176.864 112.976 176.852 112.243 176.804C112.22 176.54 112.1 176.144 111.932 175.868C112.736 175.952 113.492 175.952 113.792 175.952C114.044 175.952 114.176 175.916 114.32 175.772C114.704 175.388 114.896 173.612 115.052 169.004V168.812ZM110.108 165.944H111.02V167.372C111.02 170.06 110.732 174.02 106.544 176.804C106.4 176.588 106.064 176.288 105.836 176.132C109.856 173.528 110.108 169.856 110.108 167.372V165.944ZM107.12 166.592L107.9 166.256C108.38 166.784 108.944 167.54 109.196 168.032L108.38 168.416C108.152 167.936 107.6 167.156 107.12 166.592ZM111.164 171.56L111.908 171.188C112.544 171.896 113.276 172.868 113.588 173.504L112.796 173.924C112.496 173.288 111.776 172.28 111.164 171.56ZM121.159 167.273V176H120.102V168.381H120.051L117.92 169.795V168.722L120.102 167.273H121.159ZM124.67 174.807L124.602 175.267C124.554 175.591 124.48 175.938 124.381 176.307C124.284 176.676 124.183 177.024 124.078 177.351C123.973 177.678 123.886 177.938 123.818 178.131H123.051C123.088 177.949 123.136 177.709 123.196 177.411C123.256 177.112 123.315 176.778 123.375 176.409C123.438 176.043 123.489 175.668 123.528 175.284L123.58 174.807H124.67ZM129.552 171.284H140.448V172.184H129.552V171.284ZM134.544 169.352H135.48V175.808C135.48 176.408 135.312 176.684 134.856 176.828C134.412 176.972 133.632 176.996 132.48 176.996C132.408 176.732 132.24 176.324 132.084 176.06C133.056 176.096 133.944 176.096 134.208 176.084C134.46 176.072 134.544 176.012 134.544 175.796V169.352ZM130.788 166.76H138.624V167.648H130.788V166.76ZM138.312 166.76H138.552L138.756 166.712L139.44 167.216C138.348 168.32 136.644 169.508 135.24 170.228C135.108 170.024 134.832 169.736 134.652 169.58C135.96 168.956 137.556 167.816 138.312 166.964V166.76ZM150.24 170.168H151.176V174.176C151.176 174.728 151.056 175.028 150.612 175.172C150.18 175.328 149.436 175.328 148.296 175.328C148.26 175.04 148.128 174.656 148.008 174.38C148.896 174.416 149.712 174.416 149.94 174.392C150.18 174.392 150.24 174.332 150.24 174.164V170.168ZM145.308 170.708H146.244V176.936H145.308V170.708ZM142.152 170.168H150.636V171.032H142.152V170.168ZM141.648 167.288H152.328V168.152H141.648V167.288ZM144.456 165.92H145.368V169.52H144.456V165.92ZM148.596 165.92H149.532V169.52H148.596V165.92ZM158.436 165.92H159.348V170.012H158.436V165.92ZM155.82 170.432V172.58H162.096V170.432H155.82ZM154.968 169.58H163.008V173.42H154.968V169.58ZM158.856 167.204H163.908V168.056H158.856V167.204ZM157.056 174.464L157.92 174.392C158.088 175.172 158.22 176.156 158.232 176.744L157.308 176.864C157.308 176.252 157.212 175.244 157.056 174.464ZM159.54 174.476L160.356 174.308C160.728 175.028 161.124 176 161.268 176.612L160.38 176.828C160.26 176.228 159.9 175.232 159.54 174.476ZM161.988 174.38L162.792 174.08C163.404 174.824 164.1 175.844 164.388 176.516L163.536 176.864C163.26 176.204 162.6 175.148 161.988 174.38ZM155.112 174.152L155.964 174.368C155.568 175.304 154.956 176.324 154.308 176.96L153.48 176.552C154.116 176.012 154.74 175.04 155.112 174.152ZM168.466 174.466V168.841H169.42V174.466H168.466ZM166.13 172.131V171.176H171.755V172.131H166.13ZM176.87 167.273V176H175.813V168.381H175.762L173.631 169.795V168.722L175.813 167.273H176.87ZM3.768 187.028H11.388V187.844H3.768V187.028ZM8.196 182.144H9.036V184.496C9.036 184.76 9.072 184.808 9.384 184.808C9.516 184.808 10.224 184.808 10.404 184.808C10.656 184.808 10.704 184.688 10.728 183.872C10.908 184.004 11.244 184.112 11.472 184.172C11.388 185.264 11.16 185.54 10.5 185.54C10.32 185.54 9.444 185.54 9.276 185.54C8.4 185.54 8.196 185.324 8.196 184.508V182.144ZM3.936 181.46H11.304V183.464H10.476V182.228H4.74V183.668H3.936V181.46ZM7.044 185.672H7.92V191.96H7.044V185.672ZM6.204 182.156H7.056C6.936 184.292 6.456 185.384 4.212 185.984C4.14 185.78 3.912 185.468 3.756 185.312C5.748 184.832 6.108 183.968 6.204 182.156ZM8.28 187.412C8.952 188.696 10.296 190.028 11.58 190.64C11.364 190.808 11.076 191.132 10.932 191.372C9.66 190.628 8.34 189.128 7.62 187.652L8.28 187.412ZM6.768 187.34L7.476 187.58C6.684 189.212 5.232 190.7 3.756 191.456C3.624 191.252 3.372 190.94 3.18 190.772C4.608 190.136 6.036 188.768 6.768 187.34ZM1.02 181.712L1.548 181.064C2.292 181.4 3.216 181.964 3.672 182.384L3.132 183.116C2.688 182.672 1.788 182.084 1.02 181.712ZM0.468 185.012L0.924 184.316C1.692 184.556 2.652 185 3.132 185.372L2.652 186.164C2.184 185.768 1.236 185.3 0.468 185.012ZM0.78 191.276C1.356 190.364 2.184 188.804 2.796 187.472L3.492 188C2.928 189.248 2.196 190.724 1.56 191.828L0.78 191.276ZM14.7 184.292H23.232V185.036H14.7V184.292ZM14.868 187.796H21.732V188.54H14.868V187.796ZM16.632 183.248H17.484V186.308H20.412V183.248H21.288V187.028H16.632V183.248ZM21.492 187.796H21.672L21.84 187.748L22.404 188.06C21.084 190.556 18.012 191.564 14.784 191.972C14.712 191.744 14.544 191.408 14.4 191.204C17.436 190.916 20.4 189.98 21.492 187.928V187.796ZM17.004 188.42C18.144 190.016 20.628 190.916 23.532 191.216C23.34 191.408 23.112 191.756 23.004 191.984C20.028 191.6 17.532 190.58 16.224 188.708L17.004 188.42ZM17.88 180.932H18.804V182.564H17.88V180.932ZM13.884 182.12H23.316V182.936H13.884V182.12ZM13.44 182.12H14.304V185.576C14.304 187.448 14.148 190.16 13.116 191.984C12.96 191.828 12.576 191.576 12.372 191.48C13.356 189.764 13.44 187.328 13.44 185.576V182.12ZM25.2784 186.636C25.2784 185.562 25.4176 184.575 25.696 183.675C25.9773 182.771 26.3778 181.94 26.8977 181.182H27.7841C27.5795 181.463 27.3878 181.81 27.2088 182.222C27.0327 182.631 26.8778 183.081 26.7443 183.572C26.6108 184.061 26.5057 184.567 26.429 185.089C26.3551 185.612 26.3182 186.128 26.3182 186.636C26.3182 187.312 26.3835 187.999 26.5142 188.695C26.6449 189.391 26.821 190.037 27.0426 190.634C27.2642 191.23 27.5114 191.716 27.7841 192.091H26.8977C26.3778 191.332 25.9773 190.503 25.696 189.602C25.4176 188.699 25.2784 187.71 25.2784 186.636ZM32.0977 191H29.4045V182.273H32.217C33.0636 182.273 33.788 182.447 34.3903 182.797C34.9925 183.143 35.4542 183.642 35.7752 184.293C36.0962 184.94 36.2567 185.716 36.2567 186.619C36.2567 187.528 36.0948 188.311 35.771 188.967C35.4471 189.621 34.9755 190.124 34.3562 190.476C33.7369 190.825 32.984 191 32.0977 191ZM30.4613 190.062H32.0295C32.7511 190.062 33.3491 189.923 33.8235 189.645C34.2979 189.366 34.6516 188.97 34.8846 188.456C35.1175 187.942 35.234 187.33 35.234 186.619C35.234 185.915 35.119 185.308 34.8888 184.8C34.6587 184.288 34.315 183.896 33.8576 183.624C33.4002 183.348 32.8306 183.21 32.1488 183.21H30.4613V190.062ZM40.6374 191.136C40.0067 191.136 39.4627 190.997 39.0053 190.719C38.5508 190.438 38.1999 190.045 37.9528 189.543C37.7085 189.037 37.5863 188.449 37.5863 187.778C37.5863 187.108 37.7085 186.517 37.9528 186.006C38.1999 185.491 38.5437 185.091 38.984 184.804C39.4272 184.514 39.9442 184.369 40.5352 184.369C40.8761 184.369 41.2127 184.426 41.5451 184.54C41.8775 184.653 42.18 184.838 42.4528 185.094C42.7255 185.347 42.9428 185.682 43.1048 186.099C43.2667 186.517 43.3477 187.031 43.3477 187.642V188.068H38.3022V187.199H42.3249C42.3249 186.83 42.2511 186.5 42.1033 186.21C41.9585 185.92 41.7511 185.692 41.4812 185.524C41.2141 185.357 40.8988 185.273 40.5352 185.273C40.1346 185.273 39.788 185.372 39.4954 185.571C39.2056 185.767 38.9826 186.023 38.8263 186.338C38.6701 186.653 38.592 186.991 38.592 187.352V187.932C38.592 188.426 38.6772 188.845 38.8477 189.189C39.021 189.53 39.261 189.79 39.5678 189.969C39.8746 190.145 40.2312 190.233 40.6374 190.233C40.9016 190.233 41.1403 190.196 41.3533 190.122C41.5692 190.045 41.7553 189.932 41.9116 189.781C42.0678 189.628 42.1886 189.437 42.2738 189.21L43.2454 189.483C43.1431 189.812 42.9712 190.102 42.7298 190.352C42.4883 190.599 42.19 190.793 41.8349 190.932C41.4798 191.068 41.0806 191.136 40.6374 191.136ZM44.8775 193.455V184.455H45.8491V185.494H45.9684C46.0423 185.381 46.1445 185.236 46.2752 185.06C46.4087 184.881 46.5991 184.722 46.8462 184.582C47.0962 184.44 47.4343 184.369 47.8604 184.369C48.4116 184.369 48.8974 184.507 49.3178 184.783C49.7383 185.058 50.0664 185.449 50.3022 185.955C50.538 186.46 50.6559 187.057 50.6559 187.744C50.6559 188.438 50.538 189.038 50.3022 189.547C50.0664 190.053 49.7397 190.445 49.3221 190.723C48.9045 190.999 48.4229 191.136 47.8775 191.136C47.457 191.136 47.1204 191.067 46.8675 190.928C46.6147 190.786 46.4201 190.625 46.2837 190.446C46.1474 190.264 46.0423 190.114 45.9684 189.994H45.8832V193.455H44.8775ZM45.8661 187.727C45.8661 188.222 45.9386 188.658 46.0835 189.036C46.2283 189.411 46.44 189.705 46.7184 189.918C46.9968 190.128 47.3377 190.233 47.7411 190.233C48.1616 190.233 48.5124 190.122 48.7937 189.901C49.0778 189.676 49.2908 189.375 49.4329 188.997C49.5778 188.616 49.6502 188.193 49.6502 187.727C49.6502 187.267 49.5792 186.852 49.4371 186.483C49.2979 186.111 49.0863 185.817 48.8022 185.601C48.521 185.382 48.1673 185.273 47.7411 185.273C47.332 185.273 46.9883 185.376 46.7099 185.584C46.4315 185.788 46.2212 186.075 46.0792 186.445C45.9371 186.811 45.8661 187.239 45.8661 187.727ZM55.0366 184.455V185.307H51.6445V184.455H55.0366ZM52.6332 182.886H53.6388V189.125C53.6388 189.409 53.68 189.622 53.7624 189.764C53.8477 189.903 53.9556 189.997 54.0863 190.045C54.2198 190.091 54.3604 190.114 54.5082 190.114C54.619 190.114 54.7099 190.108 54.7809 190.097C54.8519 190.082 54.9087 190.071 54.9513 190.062L55.1559 190.966C55.0877 190.991 54.9925 191.017 54.8704 191.043C54.7482 191.071 54.5934 191.085 54.4059 191.085C54.1218 191.085 53.8434 191.024 53.5707 190.902C53.3008 190.78 53.0763 190.594 52.8974 190.344C52.7212 190.094 52.6332 189.778 52.6332 189.398V182.886ZM57.6957 187.062V191H56.69V182.273H57.6957V185.477H57.7809C57.9343 185.139 58.1644 184.871 58.4712 184.672C58.7809 184.47 59.1928 184.369 59.707 184.369C60.1531 184.369 60.5437 184.459 60.8789 184.638C61.2141 184.814 61.4741 185.085 61.6587 185.452C61.8462 185.815 61.94 186.278 61.94 186.841V191H60.9343V186.909C60.9343 186.389 60.7994 185.987 60.5295 185.703C60.2624 185.416 59.8917 185.273 59.4173 185.273C59.0877 185.273 58.7923 185.342 58.5309 185.482C58.2724 185.621 58.0678 185.824 57.9173 186.091C57.7695 186.358 57.6957 186.682 57.6957 187.062ZM65.9276 187.318C65.9276 188.392 65.7869 189.381 65.5057 190.284C65.2273 191.185 64.8281 192.014 64.3082 192.773H63.4219C63.6264 192.491 63.8168 192.145 63.9929 191.733C64.1719 191.324 64.3281 190.875 64.4616 190.386C64.5952 189.895 64.6989 189.388 64.7727 188.865C64.8494 188.339 64.8878 187.824 64.8878 187.318C64.8878 186.642 64.8224 185.956 64.6918 185.26C64.5611 184.564 64.3849 183.918 64.1634 183.321C63.9418 182.724 63.6946 182.239 63.4219 181.864H64.3082C64.8281 182.622 65.2273 183.453 65.5057 184.357C65.7869 185.257 65.9276 186.244 65.9276 187.318ZM68.8604 191.068C68.6502 191.068 68.4698 190.993 68.3192 190.842C68.1687 190.692 68.0934 190.511 68.0934 190.301C68.0934 190.091 68.1687 189.911 68.3192 189.76C68.4698 189.609 68.6502 189.534 68.8604 189.534C69.0707 189.534 69.2511 189.609 69.4016 189.76C69.5522 189.911 69.6275 190.091 69.6275 190.301C69.6275 190.44 69.592 190.568 69.521 190.685C69.4528 190.801 69.3604 190.895 69.244 190.966C69.1303 191.034 69.0025 191.068 68.8604 191.068ZM68.8604 186.21C68.6502 186.21 68.4698 186.135 68.3192 185.984C68.1687 185.834 68.0934 185.653 68.0934 185.443C68.0934 185.233 68.1687 185.053 68.3192 184.902C68.4698 184.751 68.6502 184.676 68.8604 184.676C69.0707 184.676 69.2511 184.751 69.4016 184.902C69.5522 185.053 69.6275 185.233 69.6275 185.443C69.6275 185.582 69.592 185.71 69.521 185.827C69.4528 185.943 69.3604 186.037 69.244 186.108C69.1303 186.176 69.0025 186.21 68.8604 186.21ZM78.1707 182.396H80.5467V183.188H78.1707V182.396ZM80.2827 182.396H80.4267L80.5707 182.36L81.0867 182.504C80.7507 186.572 79.7307 189.716 78.2307 191.384C78.0987 191.192 77.8227 190.904 77.6187 190.76C78.9747 189.344 79.9947 186.176 80.2827 182.6V182.396ZM77.9667 184.724L78.5547 184.28C79.5987 185.888 80.8587 188.012 81.4107 189.26L80.7507 189.812C80.2107 188.528 78.9867 186.344 77.9667 184.724ZM81.2547 183.572H85.3827V184.388H81.2547V183.572ZM83.6067 180.968H84.4347V190.796C84.4347 191.324 84.3027 191.588 83.9667 191.72C83.6547 191.876 83.1027 191.9 82.1667 191.9C82.1427 191.672 82.0227 191.288 81.8907 191.036C82.5747 191.06 83.1747 191.06 83.3547 191.048C83.5347 191.048 83.6067 190.988 83.6067 190.796V180.968ZM81.4947 185.816L82.1547 185.54C82.6587 186.332 83.1867 187.376 83.4267 188.072L82.7307 188.396C82.5027 187.688 81.9747 186.608 81.4947 185.816ZM74.5107 183.476H77.7267V184.304H74.5107V183.476ZM75.8427 180.92H76.6467V191.948H75.8427V180.92ZM75.8547 183.992L76.4307 184.16C76.1427 186.032 75.4827 188.456 74.7267 189.704C74.6187 189.464 74.4147 189.14 74.2587 188.948C74.9547 187.82 75.6027 185.696 75.8547 183.992ZM76.6107 184.7C76.8507 185.072 77.8227 186.788 78.0147 187.172L77.5227 187.892C77.2587 187.232 76.4907 185.648 76.2027 185.12L76.6107 184.7ZM87.4587 182.852H91.1067V190.7H87.4587V189.884H90.2667V183.656H87.4587V182.852ZM86.9187 182.852H87.7587V191.66H86.9187V182.852ZM87.3987 186.188H90.7107V186.992H87.3987V186.188ZM88.7547 180.896L89.7267 181.076C89.4867 181.82 89.1867 182.648 88.9467 183.188L88.2267 183.008C88.4307 182.432 88.6587 181.52 88.7547 180.896ZM92.8107 182.816H96.4947V183.656H92.8107V182.816ZM96.1827 182.816H97.0227C97.0227 182.816 97.0227 183.152 97.0227 183.284C96.8307 188.792 96.6627 190.652 96.1827 191.24C95.9187 191.588 95.6427 191.696 95.2227 191.732C94.8147 191.78 94.1067 191.756 93.4347 191.72C93.4107 191.456 93.3027 191.084 93.1347 190.844C93.9147 190.904 94.6347 190.916 94.9107 190.916C95.1507 190.916 95.2947 190.88 95.4267 190.724C95.8227 190.292 96.0147 188.3 96.1827 183.008V182.816ZM93.0627 180.872L93.9267 181.076C93.4827 182.864 92.7747 184.628 91.9467 185.768C91.7907 185.624 91.4187 185.372 91.2027 185.252C92.0187 184.196 92.6787 182.54 93.0627 180.872ZM92.5107 185.936L93.2067 185.528C93.8907 186.38 94.7187 187.544 95.1027 188.252L94.3347 188.732C93.9747 188 93.1707 186.812 92.5107 185.936ZM100.887 183.392V184.244H106.911V183.392H100.887ZM100.887 181.952V182.78H106.911V181.952H100.887ZM100.011 181.304H107.799V184.88H100.011V181.304ZM98.5827 185.552H109.155V186.296H98.5827V185.552ZM103.911 187.052H108.183V187.784H103.911V187.052ZM100.143 187.124H103.107V187.796H100.143V187.124ZM100.143 188.636H103.107V189.308H100.143V188.636ZM105.171 187.724C105.867 189.44 107.403 190.748 109.443 191.252C109.251 191.42 109.011 191.744 108.891 191.96C106.779 191.336 105.231 189.908 104.439 187.94L105.171 187.724ZM107.907 187.052H108.075L108.231 187.016L108.783 187.244C107.991 189.68 106.059 191.18 103.971 191.9C103.875 191.684 103.647 191.36 103.479 191.192C105.399 190.616 107.247 189.212 107.907 187.196V187.052ZM98.4747 190.472C99.6507 190.376 101.391 190.184 103.083 189.992V190.736C101.463 190.928 99.7947 191.132 98.5587 191.276L98.4747 190.472ZM102.627 185.792H103.491V191.96H102.627V185.792ZM99.6147 185.804H100.455V190.688H99.6147V185.804ZM110.631 184.376H121.179V185.288H110.631V184.376ZM116.475 184.736C117.255 187.64 118.887 190.064 121.383 191.096C121.155 191.3 120.855 191.684 120.699 191.936C118.107 190.712 116.475 188.18 115.575 184.952L116.475 184.736ZM115.419 180.932H116.391C116.343 184.076 116.319 189.548 111.075 191.948C110.931 191.708 110.643 191.384 110.391 191.204C115.491 188.984 115.395 183.812 115.419 180.932ZM123.471 181.496H124.383V185.012C124.383 187.04 124.227 189.98 123.051 191.936C122.883 191.804 122.475 191.576 122.247 191.492C123.375 189.596 123.471 186.92 123.471 185.012V181.496ZM124.107 181.496H132.507V184.508H124.107V183.728H131.607V182.288H124.107V181.496ZM125.535 185.54H132.363V186.332H125.535V185.54ZM124.755 187.592H133.191V188.396H124.755V187.592ZM130.107 189.068L130.887 188.732C131.559 189.656 132.411 190.94 132.807 191.672L131.979 192.08C131.595 191.324 130.779 190.016 130.107 189.068ZM125.343 191.78C125.283 191.588 125.127 191.168 125.019 190.94C125.223 190.892 125.451 190.676 125.715 190.388C125.991 190.088 126.867 188.96 127.419 187.868L128.439 188.132C127.707 189.32 126.783 190.508 125.931 191.3V191.324C125.931 191.324 125.343 191.6 125.343 191.78ZM125.343 191.78L125.307 191.12L125.883 190.82L131.655 190.472C131.703 190.712 131.787 191.024 131.847 191.204C126.303 191.588 125.715 191.636 125.343 191.78ZM134.355 187.328H140.247V188.084H134.355V187.328ZM134.427 183.14H140.211V183.872H134.427V183.14ZM136.587 186.296L137.427 186.476C136.887 187.652 136.131 189.116 135.579 190.064L134.787 189.788C135.327 188.876 136.083 187.4 136.587 186.296ZM138.387 187.772L139.227 187.88C138.819 190.22 137.559 191.372 134.787 191.96C134.727 191.72 134.547 191.396 134.379 191.216C136.887 190.796 138.015 189.812 138.387 187.772ZM139.143 181.16L139.911 181.496C139.563 182.048 139.167 182.648 138.831 183.056L138.231 182.756C138.531 182.324 138.927 181.628 139.143 181.16ZM136.911 180.92H137.739V186.44H136.911V180.92ZM134.871 181.496L135.555 181.208C135.891 181.688 136.215 182.324 136.335 182.756L135.627 183.08C135.519 182.648 135.207 181.988 134.871 181.496ZM136.923 183.464L137.535 183.824C136.947 184.832 135.819 185.9 134.787 186.464C134.679 186.26 134.463 185.96 134.295 185.78C135.291 185.348 136.395 184.388 136.923 183.464ZM137.643 183.884C138.075 184.112 139.539 185.036 139.887 185.288L139.395 185.948C138.963 185.54 137.715 184.604 137.211 184.268L137.643 183.884ZM141.123 183.14H145.395V183.98H141.123V183.14ZM141.423 180.92L142.335 181.052C141.939 183.404 141.231 185.552 140.175 186.956C140.031 186.788 139.659 186.488 139.443 186.344C140.463 185.072 141.087 183.044 141.423 180.92ZM143.787 183.62L144.699 183.716C144.123 187.856 142.851 190.436 139.827 191.996C139.731 191.78 139.467 191.384 139.287 191.192C142.143 189.848 143.295 187.424 143.787 183.62ZM141.603 183.884C142.131 187.184 143.283 190.016 145.515 191.192C145.299 191.372 145.011 191.72 144.879 191.96C142.527 190.58 141.387 187.652 140.787 184.016L141.603 183.884ZM135.507 189.62L135.987 189.008C137.427 189.56 138.915 190.352 139.779 191.012L139.155 191.66C138.327 190.988 136.899 190.184 135.507 189.62ZM0.804 198.092H11.16V198.968H0.804V198.092ZM4.02 201.272H10.848V202.136H4.02V201.272ZM2.784 205.748H11.376V206.612H2.784V205.748ZM6.72 201.656H7.632V206.24H6.72V201.656ZM4.428 195.932L5.364 196.052C4.716 199.784 3.612 203.78 0.936 206.24C0.804 206.036 0.516 205.712 0.336 205.532C2.844 203.276 3.9 199.4 4.428 195.932ZM12.564 201.284H23.46V202.184H12.564V201.284ZM17.556 199.352H18.492V205.808C18.492 206.408 18.324 206.684 17.868 206.828C17.424 206.972 16.644 206.996 15.492 206.996C15.42 206.732 15.252 206.324 15.096 206.06C16.068 206.096 16.956 206.096 17.22 206.084C17.472 206.072 17.556 206.012 17.556 205.796V199.352ZM13.8 196.76H21.636V197.648H13.8V196.76ZM21.324 196.76H21.564L21.768 196.712L22.452 197.216C21.36 198.32 19.656 199.508 18.252 200.228C18.12 200.024 17.844 199.736 17.664 199.58C18.972 198.956 20.568 197.816 21.324 196.964V196.76ZM28.284 197.396H30.66V198.188H28.284V197.396ZM30.396 197.396H30.54L30.684 197.36L31.2 197.504C30.864 201.572 29.844 204.716 28.344 206.384C28.212 206.192 27.936 205.904 27.732 205.76C29.088 204.344 30.108 201.176 30.396 197.6V197.396ZM28.08 199.724L28.668 199.28C29.712 200.888 30.972 203.012 31.524 204.26L30.864 204.812C30.324 203.528 29.1 201.344 28.08 199.724ZM31.368 198.572H35.496V199.388H31.368V198.572ZM33.72 195.968H34.548V205.796C34.548 206.324 34.416 206.588 34.08 206.72C33.768 206.876 33.216 206.9 32.28 206.9C32.256 206.672 32.136 206.288 32.004 206.036C32.688 206.06 33.288 206.06 33.468 206.048C33.648 206.048 33.72 205.988 33.72 205.796V195.968ZM31.608 200.816L32.268 200.54C32.772 201.332 33.3 202.376 33.54 203.072L32.844 203.396C32.616 202.688 32.088 201.608 31.608 200.816ZM24.624 198.476H27.84V199.304H24.624V198.476ZM25.956 195.92H26.76V206.948H25.956V195.92ZM25.968 198.992L26.544 199.16C26.256 201.032 25.596 203.456 24.84 204.704C24.732 204.464 24.528 204.14 24.372 203.948C25.068 202.82 25.716 200.696 25.968 198.992ZM26.724 199.7C26.964 200.072 27.936 201.788 28.128 202.172L27.636 202.892C27.372 202.232 26.604 200.648 26.316 200.12L26.724 199.7Z" fill="#444444"/>
<defs>
<linearGradient id="paint0_linear_1_485" x1="75" y1="0" x2="54.2076" y2="4.21046" gradientUnits="userSpaceOnUse">
<stop stop-color="#32D8B7" stop-opacity="0.8"/>
<stop offset="0.302283" stop-color="#70BDD3" stop-opacity="0.8"/>
<stop offset="0.851667" stop-color="#0E0B56" stop-opacity="0.7"/>
<stop offset="1" stop-color="#FFBB5C" stop-opacity="0.6"/>
</linearGradient>
<linearGradient id="paint1_linear_1_485" x1="65.5" y1="9" x2="65.5" y2="17" gradientUnits="userSpaceOnUse">
<stop stop-color="#6DA1AD"/>
<stop offset="1" stop-color="#6E89AE"/>
</linearGradient>
<linearGradient id="paint2_linear_1_485" x1="58" y1="9.5" x2="74" y2="9.5" gradientUnits="userSpaceOnUse">
<stop stop-color="#6E678B"/>
<stop offset="1" stop-color="#6CD8CD"/>
</linearGradient>
<linearGradient id="paint3_linear_1_485" x1="40" y1="28" x2="19.2076" y2="32.2105" gradientUnits="userSpaceOnUse">
<stop stop-color="#32D8B7" stop-opacity="0.8"/>
<stop offset="0.302283" stop-color="#70BDD3" stop-opacity="0.8"/>
<stop offset="0.851667" stop-color="#0E0B56" stop-opacity="0.7"/>
<stop offset="1" stop-color="#FFBB5C" stop-opacity="0.6"/>
</linearGradient>
<linearGradient id="paint4_linear_1_485" x1="30.5" y1="37" x2="30.5" y2="45" gradientUnits="userSpaceOnUse">
<stop stop-color="#6DA1AD"/>
<stop offset="1" stop-color="#6E89AE"/>
</linearGradient>
<linearGradient id="paint5_linear_1_485" x1="23" y1="37.5" x2="39" y2="37.5" gradientUnits="userSpaceOnUse">
<stop stop-color="#6E678B"/>
<stop offset="1" stop-color="#6CD8CD"/>
</linearGradient>
<linearGradient id="paint6_linear_1_485" x1="110" y1="28" x2="89.2076" y2="32.2105" gradientUnits="userSpaceOnUse">
<stop stop-color="#32D8B7" stop-opacity="0.8"/>
<stop offset="0.302283" stop-color="#70BDD3" stop-opacity="0.8"/>
<stop offset="0.851667" stop-color="#0E0B56" stop-opacity="0.7"/>
<stop offset="1" stop-color="#FFBB5C" stop-opacity="0.6"/>
</linearGradient>
<linearGradient id="paint7_linear_1_485" x1="100.5" y1="37" x2="100.5" y2="45" gradientUnits="userSpaceOnUse">
<stop stop-color="#6DA1AD"/>
<stop offset="1" stop-color="#6E89AE"/>
</linearGradient>
<linearGradient id="paint8_linear_1_485" x1="93" y1="37.5" x2="109" y2="37.5" gradientUnits="userSpaceOnUse">
<stop stop-color="#6E678B"/>
<stop offset="1" stop-color="#6CD8CD"/>
</linearGradient>
<linearGradient id="paint9_linear_1_485" x1="129" y1="56" x2="108.208" y2="60.2105" gradientUnits="userSpaceOnUse">
<stop stop-color="#32D8B7" stop-opacity="0.8"/>
<stop offset="0.302283" stop-color="#70BDD3" stop-opacity="0.8"/>
<stop offset="0.851667" stop-color="#0E0B56" stop-opacity="0.7"/>
<stop offset="1" stop-color="#FFBB5C" stop-opacity="0.6"/>
</linearGradient>
<linearGradient id="paint10_linear_1_485" x1="119.5" y1="65" x2="119.5" y2="73" gradientUnits="userSpaceOnUse">
<stop stop-color="#6DA1AD"/>
<stop offset="1" stop-color="#6E89AE"/>
</linearGradient>
<linearGradient id="paint11_linear_1_485" x1="112" y1="65.5" x2="128" y2="65.5" gradientUnits="userSpaceOnUse">
<stop stop-color="#6E678B"/>
<stop offset="1" stop-color="#6CD8CD"/>
</linearGradient>
<linearGradient id="paint12_linear_1_485" x1="91" y1="56" x2="70.2076" y2="60.2105" gradientUnits="userSpaceOnUse">
<stop stop-color="#32D8B7" stop-opacity="0.8"/>
<stop offset="0.302283" stop-color="#70BDD3" stop-opacity="0.8"/>
<stop offset="0.851667" stop-color="#0E0B56" stop-opacity="0.7"/>
<stop offset="1" stop-color="#FFBB5C" stop-opacity="0.6"/>
</linearGradient>
<linearGradient id="paint13_linear_1_485" x1="81.5" y1="65" x2="81.5" y2="73" gradientUnits="userSpaceOnUse">
<stop stop-color="#6DA1AD"/>
<stop offset="1" stop-color="#6E89AE"/>
</linearGradient>
<linearGradient id="paint14_linear_1_485" x1="74" y1="65.5" x2="90" y2="65.5" gradientUnits="userSpaceOnUse">
<stop stop-color="#6E678B"/>
<stop offset="1" stop-color="#6CD8CD"/>
</linearGradient>
<linearGradient id="paint15_linear_1_485" x1="59" y1="56" x2="38.2076" y2="60.2105" gradientUnits="userSpaceOnUse">
<stop stop-color="#32D8B7" stop-opacity="0.8"/>
<stop offset="0.302283" stop-color="#70BDD3" stop-opacity="0.8"/>
<stop offset="0.851667" stop-color="#0E0B56" stop-opacity="0.7"/>
<stop offset="1" stop-color="#FFBB5C" stop-opacity="0.6"/>
</linearGradient>
<linearGradient id="paint16_linear_1_485" x1="49.5" y1="65" x2="49.5" y2="73" gradientUnits="userSpaceOnUse">
<stop stop-color="#6DA1AD"/>
<stop offset="1" stop-color="#6E89AE"/>
</linearGradient>
<linearGradient id="paint17_linear_1_485" x1="42" y1="65.5" x2="58" y2="65.5" gradientUnits="userSpaceOnUse">
<stop stop-color="#6E678B"/>
<stop offset="1" stop-color="#6CD8CD"/>
</linearGradient>
<linearGradient id="paint18_linear_1_485" x1="21" y1="56" x2="0.207617" y2="60.2105" gradientUnits="userSpaceOnUse">
<stop stop-color="#32D8B7" stop-opacity="0.8"/>
<stop offset="0.302283" stop-color="#70BDD3" stop-opacity="0.8"/>
<stop offset="0.851667" stop-color="#0E0B56" stop-opacity="0.7"/>
<stop offset="1" stop-color="#FFBB5C" stop-opacity="0.6"/>
</linearGradient>
<linearGradient id="paint19_linear_1_485" x1="11.5" y1="65" x2="11.5" y2="73" gradientUnits="userSpaceOnUse">
<stop stop-color="#6DA1AD"/>
<stop offset="1" stop-color="#6E89AE"/>
</linearGradient>
<linearGradient id="paint20_linear_1_485" x1="4" y1="65.5" x2="20" y2="65.5" gradientUnits="userSpaceOnUse">
<stop stop-color="#6E678B"/>
<stop offset="1" stop-color="#6CD8CD"/>
</linearGradient>
</defs>
</svg>
